<svg xmlns="http://www.w3.org/2000/svg" viewBox="0 0 113.444 121.965"><defs><style>.a{fill:#fff;}</style></defs><path class="a" d="M113.44,95.6A28.956,28.956,0,0,0,111.3,85.389c-.987-2.516-2.131-4.966-3.249-7.425q-13.344-29.086-28-57.54c-1.374-2.65-2.719-5.316-4.17-7.925a28.085,28.085,0,0,0-5.235-6.987A20.443,20.443,0,0,0,57.9,0H55.721A20.36,20.36,0,0,0,42.626,5.68a28.414,28.414,0,0,0-5.06,6.826c-1.431,2.566-2.757,5.19-4.106,7.8Q23.626,39.39,14.376,58.768C10.7,66.5,7.056,74.241,3.55,82.047A38.023,38.023,0,0,0,.286,92.212,25.953,25.953,0,0,0,15.618,119.8,26.434,26.434,0,0,0,27.6,121.92a32.86,32.86,0,0,0,15.409-5.136,67.281,67.281,0,0,0,13.721-11.822A69.333,69.333,0,0,0,69.4,116.122a33.9,33.9,0,0,0,15.269,5.7A26.022,26.022,0,0,0,111.6,105.6,25.823,25.823,0,0,0,113.44,95.6ZM56.757,93.291c-1.495-1.761-2.812-3.664-4.135-5.554a68.071,68.071,0,0,1-5.878-10.284,33.773,33.773,0,0,1-2.824-9.395,16.233,16.233,0,0,1,.719-7.745,11.418,11.418,0,0,1,4.553-5.619,14.123,14.123,0,0,1,16.432,1.022,11.94,11.94,0,0,1,3.953,7.7,24.829,24.829,0,0,1-1.8,11.431C65.212,81.587,61.149,87.625,56.757,93.291Zm48.392,8.255a18.327,18.327,0,0,1-8.63,10.816,18.843,18.843,0,0,1-12.2,2.067c-5.275-.821-10.007-3.62-14.109-6.924a74.965,74.965,0,0,1-8.328-8.043A95.938,95.938,0,0,0,72.807,82.9c2.578-5.2,4.537-10.834,4.723-16.681A21.93,21.93,0,0,0,75.2,55.428,19.808,19.808,0,0,0,64.21,45.985a22.5,22.5,0,0,0-13.633-.428A19.746,19.746,0,0,0,36.016,63.323c-.47,5.463.9,10.913,2.971,15.935A84.165,84.165,0,0,0,51.576,99.4a68.884,68.884,0,0,1-7.306,7.26c-4.052,3.429-8.688,6.414-13.94,7.55a19.128,19.128,0,0,1-12.722-1.491,18.287,18.287,0,0,1-9.383-11.475A18.869,18.869,0,0,1,8.64,90.184c1-2.93,2.354-5.722,3.622-8.541q13.2-28.773,27.689-56.927c1.44-2.793,2.858-5.6,4.382-8.346a18.741,18.741,0,0,1,4.735-5.94,12.653,12.653,0,0,1,15.7.295,21.9,21.9,0,0,1,4.966,6.743c2.984,5.605,5.849,11.275,8.716,16.939Q90.716,58.7,102.028,83.461a59.234,59.234,0,0,1,3.125,7.814A18.759,18.759,0,0,1,105.149,101.546Z"/></svg>