<svg xmlns="http://www.w3.org/2000/svg" viewBox="0 0 145.018 99.18"><defs><style>.a{fill:#45b035;}.b{fill:#e6002d;}.c{fill:#fdd000;}.d{fill:#e73278;}.e{fill:#f08437;}</style></defs><path class="a" d="M131.538,63.654a33.556,33.556,0,0,0-.382,5.1c-.052,1.4-.683,1.788-1.117,1.5s-.977.349-.8-3.021,1.972-10.517,3.479-11.387c0,0-7.259-.877-9.931,3.828s-.99,11.1-.99,11.1-.593,2.967-1.218,1.372a17.441,17.441,0,0,1-.713-8.621c.648-3.428,1.536-7.88,1.536-7.88s-6.052,5.582-5.383,10.69,1.365,6.127.475,6.721-2.143.326-2.225-1.905.445-10.469.445-10.469-5.885,4.2-5.8,9.354a19.42,19.42,0,0,0,2.109,8.672s-3.171-.85-4.37-5.438-2.864,7.254,4.446,9.656c0,0-2.184,4.529,1.5,7.9s8.267,4.155,12.942,3.2a16.252,16.252,0,0,0,7.027-3.01s-6.558-1.843-9.28-5.445-1.44-3.564-1.44-3.564,4.063,4.114,6.27,5.2,4.369,1.578,8.164.166,3.574-2.491,3.574-2.491-10.131-2.275-11.793-4-1.238-3.306-.068-2.346a17.136,17.136,0,0,0,5.138,2.958c2.133.726,8.177.052,10.273-4.722,0,0-7.873.336-8.4-2.066s-1.068-.831.775-.608,7.852-2.092,9.247-12.679c0,0-10.791-5.512-13.424,1.769"/><path class="a" d="M13.48,65.071a33.553,33.553,0,0,1,.382,5.1c.052,1.4.683,1.788,1.117,1.5s.977.35.8-3.02S13.811,58.134,12.3,57.264c0,0,7.259-.877,9.931,3.827s.99,11.1.99,11.1.592,2.967,1.218,1.372a17.442,17.442,0,0,0,.713-8.621c-.648-3.428-1.536-7.881-1.536-7.881S29.672,62.649,29,67.757s-1.365,6.126-.475,6.721,2.143.326,2.225-1.906S30.308,62.1,30.308,62.1s5.885,4.2,5.805,9.354A19.418,19.418,0,0,1,34,80.13s3.172-.85,4.371-5.438,2.864,7.254-4.446,9.656c0,0,2.184,4.529-1.5,7.9s-8.267,4.155-12.942,3.2a16.252,16.252,0,0,1-7.027-3.01s6.558-1.844,9.28-5.445,1.44-3.565,1.44-3.565-4.063,4.115-6.27,5.2-4.369,1.579-8.164.167S5.17,86.3,5.17,86.3s10.131-2.275,11.793-4S18.2,79,17.031,79.958a17.136,17.136,0,0,1-5.138,2.958c-2.133.726-8.177.052-10.273-4.722,0,0,7.873.336,8.4-2.066s1.068-.831-.775-.608S1.4,73.428,0,62.841c0,0,10.791-5.512,13.424,1.769"/><path class="b" d="M58.665,66.363c.8.915-.743,2.21-2.1,1.744S43.644,50.883,35.362,31.2c0,0-.6-1.371.1-1.438s1.049-.217,1.525,1.047S46.8,52.847,58.665,66.363Z"/><path class="c" d="M33.528,28.566a1.214,1.214,0,1,0-.389-1.674A1.214,1.214,0,0,0,33.528,28.566Z"/><path class="c" d="M32.272,31.533a1.214,1.214,0,1,0-.389-1.673A1.214,1.214,0,0,0,32.272,31.533Z"/><path class="c" d="M36.77,29.3a1.214,1.214,0,1,0-.39-1.674A1.215,1.215,0,0,0,36.77,29.3Z"/><path class="c" d="M38.877,32.1a1.215,1.215,0,1,0-.389-1.674A1.216,1.216,0,0,0,38.877,32.1Z"/><path class="c" d="M33.67,35.07a1.215,1.215,0,1,0-.388-1.674A1.216,1.216,0,0,0,33.67,35.07Z"/><path class="c" d="M40.018,35.175A1.215,1.215,0,1,0,39.63,33.5,1.215,1.215,0,0,0,40.018,35.175Z"/><path class="c" d="M35.362,37.9a1.214,1.214,0,1,0-.389-1.672A1.213,1.213,0,0,0,35.362,37.9Z"/><path class="b" d="M50.682,64.046S48.561,59.621,45.6,57.5,38.615,53.222,34.593,53s-6.618.621-8.556,2.157-3.108,2.523-3.291,5.119a4.611,4.611,0,0,0,1.06,3.84,2.973,2.973,0,0,1,.585,1.5A4.932,4.932,0,0,1,23.4,67.7c-.4.439-.622,3.035.329,4.681s3.254,3.035,6.655,3.254,4.9-1.243,8.52-3.108,6.436-3.437,7.167-3.511A63.686,63.686,0,0,0,34.7,68.324s1.9-3.035,14.773-1.1c0,0-.622-1.938-4.534-2.67s-5.156-.987-5.156-.987a12.5,12.5,0,0,1,8.008.037S45.052,60.06,37.885,57.5C37.885,57.5,43,56.66,50.682,64.046Z"/><path class="b" d="M51.907,70.729s-4.868.616-7.815,2.757-6.264,5.276-7.743,9.024-1.5,6.476-.653,8.8,1.413,3.745,3.818,4.738a4.608,4.608,0,0,0,3.979.206,2.983,2.983,0,0,1,1.608-.082,4.935,4.935,0,0,1,1.665,1.595c.289.52,2.684,1.548,4.545,1.164S55.218,96.8,56.5,93.644s.369-5.041-.259-9.065-1.229-7.192-1.069-7.908a63.729,63.729,0,0,0-4.249,10.571s-2.279-2.762,3.623-14.364c0,0-2.035-.022-3.964,3.46s-2.565,4.58-2.565,4.58a12.5,12.5,0,0,1,2.563-7.587s-4.231,1.483-8.923,7.476C41.656,80.807,42.474,75.684,51.907,70.729Z"/><path class="b" d="M58.612,74.106s-1.847,4.545-1.425,8.164,1.532,8.045,4.076,11.169,4.912,4.48,7.352,4.88,3.958.6,6-1.008a4.61,4.61,0,0,0,2.128-3.368,2.977,2.977,0,0,1,.716-1.441,4.935,4.935,0,0,1,2.206-.672c.595,0,2.664-1.582,3.241-3.391s.058-4.45-2.068-7.114-4.216-2.79-8.03-4.214-6.873-2.45-7.419-2.942a63.683,63.683,0,0,0,7.135,8.883S69,83.687,61.777,72.858c0,0-1.015,1.765,1.075,5.151s2.738,4.48,2.738,4.48a12.5,12.5,0,0,1-5.359-5.951s-.781,4.414,2.146,11.441C62.377,87.979,58.312,84.756,58.612,74.106Z"/><path class="b" d="M61.9,65.936s1.825-4.555,4.639-6.867,6.687-4.729,10.686-5.214,6.645.183,8.68,1.588,3.268,2.312,3.623,4.891a4.614,4.614,0,0,1-.805,3.9,2.982,2.982,0,0,0-.485,1.535,4.941,4.941,0,0,0,1.122,2.014c.431.411.821,2.988-.019,4.692s-3.047,3.243-6.425,3.687-4.973-.918-8.707-2.539-6.649-3-7.383-3.03a63.635,63.635,0,0,1,11.3-1.444s-2.1-2.9-14.813-.118c0,0,.493-1.976,4.348-2.964s5.079-1.326,5.079-1.326a12.5,12.5,0,0,0-7.988.566s2.5-3.72,9.485-6.748C74.235,58.56,69.072,58.059,61.9,65.936Z"/><path class="b" d="M56.047,60.034s-2.543-4.2-2.7-7.836.241-8.187,2.259-11.673,4.143-5.2,6.489-5.981,3.813-1.22,6.087.048a4.611,4.611,0,0,1,2.633,2.989,2.974,2.974,0,0,0,.934,1.31,4.924,4.924,0,0,0,2.285.314c.587-.1,2.879,1.141,3.736,2.838s.76,4.385-.918,7.351-3.723,3.421-7.265,5.429-6.4,3.505-6.86,4.077A63.555,63.555,0,0,1,68.373,49s-3.581-.07-9,11.763c0,0-1.282-1.582.247-5.257s2-4.854,2-4.854a12.5,12.5,0,0,0-4.353,6.721s-1.467-4.235.313-11.635C57.572,45.741,54.067,49.565,56.047,60.034Z"/><path class="d" d="M102.013,35.489c-.129.909,1.38,1.087,2.04.234s1.041-16.186-1.859-32.006c0,0-.185-1.113-.658-.863s-.751.3-.53,1.289S103.914,22.078,102.013,35.489Z"/><path class="c" d="M102.263,1.3a.914.914,0,1,1-.446-1.215A.915.915,0,0,1,102.263,1.3Z"/><path class="c" d="M104.278,2.651a.914.914,0,1,1-.445-1.214A.914.914,0,0,1,104.278,2.651Z"/><path class="c" d="M100.524,3.1a.915.915,0,1,1-.445-1.216A.915.915,0,0,1,100.524,3.1Z"/><path class="c" d="M100.348,5.732A.915.915,0,1,1,99.9,4.516.917.917,0,0,1,100.348,5.732Z"/><path class="c" d="M104.856,5.458a.915.915,0,1,1-.445-1.215A.915.915,0,0,1,104.856,5.458Z"/><path class="c" d="M100.9,8.142a.915.915,0,1,1-.445-1.214A.914.914,0,0,1,100.9,8.142Z"/><path class="c" d="M104.958,7.938a.915.915,0,1,1-.446-1.214A.915.915,0,0,1,104.958,7.938Z"/><path class="d" d="M106.088,30.736a15.132,15.132,0,0,1,.5-6.221c.992-2.559,2.636-5.578,5.081-7.376s4.428-2.338,6.282-2.17,3,.308,4.186,1.869a3.474,3.474,0,0,1,.916,2.857,2.246,2.246,0,0,0,.249,1.187,3.715,3.715,0,0,0,1.482.9,4.371,4.371,0,0,1,1.723,3.086c.08,1.429-.8,3.255-2.851,4.8s-3.6,1.238-6.651,1.556a42.4,42.4,0,0,0-5.965.745,47.97,47.97,0,0,1,6.88-5.13s-2.45-1.128-9.763,5.4c0,0-.407-1.478,1.757-3.552s2.841-2.749,2.841-2.749a9.409,9.409,0,0,0-5.031,3.326s.265-3.366,3.726-7.936C111.453,21.332,107.881,22.914,106.088,30.736Z"/><path class="d" d="M108.073,35.453a15.117,15.117,0,0,1,6.062-1.486c2.741.133,6.125.741,8.6,2.493s3.616,3.462,4.042,5.276.655,2.943-.452,4.562a3.47,3.47,0,0,1-2.421,1.77,2.258,2.258,0,0,0-1.047.612,3.7,3.7,0,0,0-.393,1.692,4.369,4.369,0,0,1-2.383,2.609c-1.332.527-3.34.27-5.451-1.192s-2.312-3.026-3.576-5.82a42.652,42.652,0,0,0-2.589-5.425,47.96,47.96,0,0,1,7.039,4.91s.3-2.682-8.21-7.558c0,0,1.275-.853,3.927.545s3.5,1.828,3.5,1.828a9.412,9.412,0,0,0-4.744-3.723s3.278-.812,8.706,1.03C118.69,37.576,116.062,34.685,108.073,35.453Z"/><path class="d" d="M105.24,40.347a15.129,15.129,0,0,1,4.266,4.557c1.226,2.455,2.353,5.7,2.039,8.721s-1.247,4.849-2.62,6.108-2.246,2.012-4.2,1.841A3.472,3.472,0,0,1,102,60.329a2.251,2.251,0,0,0-1.047-.613,3.709,3.709,0,0,0-1.666.486,4.371,4.371,0,0,1-3.442-.8c-1.112-.9-1.872-2.78-1.632-5.336s1.507-3.5,3.324-5.968A42.8,42.8,0,0,0,101,43.184a48.023,48.023,0,0,1-.833,8.541s2.483-1.054,2.569-10.858c0,0,1.368.692,1.448,3.689s.122,3.952.122,3.952a9.416,9.416,0,0,0,.923-5.96s2.313,2.46,3.367,8.095C108.591,50.643,109.823,46.935,105.24,40.347Z"/><path class="d" d="M99.8,36.554a15.133,15.133,0,0,0-5.756-2.414c-2.728-.3-6.166-.223-8.886,1.122s-4.111,2.856-4.815,4.581-1.105,2.805-.265,4.577a3.474,3.474,0,0,0,2.116,2.126,2.245,2.245,0,0,1,.939.768,3.709,3.709,0,0,1,.124,1.732A4.374,4.374,0,0,0,85.2,52c1.233.728,3.258.787,5.572-.327s2.754-2.63,4.438-5.192a42.684,42.684,0,0,1,3.4-4.955A47.913,47.913,0,0,0,90.9,45.273s.124-2.695,9.286-6.185c0,0-1.126-1.042-3.962-.074s-3.749,1.259-3.749,1.259a9.416,9.416,0,0,1,5.268-2.938s-3.111-1.313-8.761-.34C88.982,36.995,92.03,34.549,99.8,36.554Z"/><path class="d" d="M101.053,30.421A15.146,15.146,0,0,0,99.52,24.37c-1.405-2.357-3.529-5.06-6.24-6.424s-4.756-1.568-6.556-1.093-2.907.8-3.817,2.541a3.472,3.472,0,0,0-.426,2.969,2.242,2.242,0,0,1-.048,1.212,3.705,3.705,0,0,1-1.31,1.141,4.373,4.373,0,0,0-1.184,3.329c.159,1.423,1.33,3.077,3.611,4.254s3.757.62,6.818.425a42.573,42.573,0,0,1,6.005-.261,47.888,47.888,0,0,0-7.639-3.909s2.227-1.522,10.526,3.7c0,0,.156-1.525-2.324-3.21s-3.26-2.236-3.26-2.236a9.413,9.413,0,0,1,5.516,2.44s-.822-3.274-5-7.2C94.2,22.042,97.981,23.006,101.053,30.421Z"/><path class="e" d="M97.532,84.925c-.578.04-.622-.918-.056-1.294s10.23.075,20.052,2.613c0,0,.691.166.512.453s-.22.459-.834.275S106.054,84.334,97.532,84.925Z"/><path class="c" d="M119.051,86.31a.576.576,0,1,0,.744.335A.577.577,0,0,0,119.051,86.31Z"/><path class="c" d="M118.292,84.981a.577.577,0,1,0,.744.335A.576.576,0,0,0,118.292,84.981Z"/><path class="c" d="M117.839,87.322a.577.577,0,1,0,.745.336A.579.579,0,0,0,117.839,87.322Z"/><path class="c" d="M116.177,87.314a.577.577,0,1,0,.744.336A.58.58,0,0,0,116.177,87.314Z"/><path class="c" d="M116.553,84.491a.577.577,0,1,0,.744.335A.577.577,0,0,0,116.553,84.491Z"/><path class="c" d="M114.685,86.859a.577.577,0,1,0,.744.336A.577.577,0,0,0,114.685,86.859Z"/><path class="c" d="M115,84.316a.576.576,0,1,0,.743.334A.576.576,0,0,0,115,84.316Z"/><path class="e" d="M100.706,82.576a9.526,9.526,0,0,0,3.936-.036,10.558,10.558,0,0,0,4.869-2.863,5.677,5.677,0,0,0,1.648-3.855,3.042,3.042,0,0,0-.987-2.718,2.189,2.189,0,0,0-1.756-.7,1.427,1.427,0,0,1-.735-.211,2.351,2.351,0,0,1-.5-.973,2.754,2.754,0,0,0-1.863-1.223,3.811,3.811,0,0,0-3.146,1.577c-1.062,1.221-.941,2.21-1.279,4.114a26.865,26.865,0,0,1-.737,3.719,30.23,30.23,0,0,0,3.537-4.1s.6,1.592-3.839,5.9c0,0,.911.323,2.314-.945s1.857-1.663,1.857-1.663a5.932,5.932,0,0,1-2.319,3.015,10.673,10.673,0,0,0,5.16-1.986S105.708,81.8,100.706,82.576Z"/><path class="e" d="M97.828,81.114a9.533,9.533,0,0,0,1.208-3.747,10.539,10.539,0,0,0-1.181-5.523,5.677,5.677,0,0,0-3.136-2.781,3.043,3.043,0,0,0-2.89.078,2.184,2.184,0,0,0-1.223,1.444,1.424,1.424,0,0,1-.432.631,2.341,2.341,0,0,1-1.083.171,2.757,2.757,0,0,0-1.748,1.381,3.81,3.81,0,0,0,.5,3.483c.824,1.393,1.8,1.591,3.5,2.513a26.943,26.943,0,0,1,3.3,1.873,30.235,30.235,0,0,0-2.771-4.649s1.7-.067,4.385,5.5c0,0,.594-.764-.166-2.495S95.1,76.71,95.1,76.71a5.941,5.941,0,0,1,2.128,3.152,10.66,10.66,0,0,0-.255-5.523S98.671,76.124,97.828,81.114Z"/><path class="e" d="M94.621,82.676a9.532,9.532,0,0,0-2.674-2.889,10.549,10.549,0,0,0-5.395-1.677,5.672,5.672,0,0,0-3.96,1.374,3.039,3.039,0,0,0-1.348,2.557,2.195,2.195,0,0,0,.66,1.774,1.425,1.425,0,0,1,.339.685,2.341,2.341,0,0,1-.382,1.027,2.757,2.757,0,0,0,.349,2.2A3.814,3.814,0,0,0,85.493,89c1.619-.036,2.268-.79,3.9-1.822a26.9,26.9,0,0,1,3.248-1.955,30.219,30.219,0,0,0-5.411.138s.776-1.515,6.947-1.125c0,0-.374-.893-2.256-1.078s-2.481-.256-2.481-.256a5.941,5.941,0,0,1,3.792-.311A10.674,10.674,0,0,0,88.3,80.1S90.683,79.5,94.621,82.676Z"/><path class="e" d="M96.762,86.269A9.541,9.541,0,0,1,98.021,90a10.543,10.543,0,0,1-1.107,5.539,5.676,5.676,0,0,1-3.1,2.822,3.05,3.05,0,0,1-2.891-.039,2.194,2.194,0,0,1-1.243-1.428,1.431,1.431,0,0,0-.44-.626,2.357,2.357,0,0,0-1.084-.155,2.766,2.766,0,0,1-1.768-1.359,3.815,3.815,0,0,1,.458-3.489c.805-1.405,1.777-1.614,3.466-2.56a26.881,26.881,0,0,0,3.271-1.916,30.193,30.193,0,0,1-2.709,4.686s1.7.043,4.31-5.563c0,0,.6.756-.132,2.495s-.961,2.3-.961,2.3a5.941,5.941,0,0,0,2.086-3.182A10.659,10.659,0,0,1,96,93.055S97.673,91.249,96.762,86.269Z"/><path class="e" d="M100.677,85.758A9.543,9.543,0,0,1,104.415,87a10.541,10.541,0,0,1,3.759,4.214,5.674,5.674,0,0,1,.391,4.173c-.38,1.113-.637,1.793-1.77,2.288a2.194,2.194,0,0,1-1.887.134,1.417,1.417,0,0,0-.765-.025,2.341,2.341,0,0,0-.776.773,2.761,2.761,0,0,1-2.148.595,3.816,3.816,0,0,1-2.513-2.464c-.638-1.488-.221-2.392.04-4.308a26.818,26.818,0,0,0,.435-3.767,30.354,30.354,0,0,1,2.116,4.983s1.057-1.333-1.853-6.789c0,0,.966-.029,1.915,1.607s1.259,2.152,1.259,2.152a5.938,5.938,0,0,0-1.286-3.581,10.686,10.686,0,0,1,4.306,3.469S105.2,88.024,100.677,85.758Z"/></svg>