<svg xmlns="http://www.w3.org/2000/svg" viewBox="0 0 416.924 128.443"><defs><style>.a{fill:#fff;}</style></defs><path class="a" d="M6.592,12.674A12.924,12.924,0,0,1,2.608,8.865Q1.435,6.932.733,5.672A6.014,6.014,0,0,1,0,2.8,1.538,1.538,0,0,1,1.465,1.013,10.737,10.737,0,0,1,6.094,2.1a41.75,41.75,0,0,1,5.83,2.871Q14.618,6.581,14.649,8.6a6.444,6.444,0,0,1-.908,3.545A3.7,3.7,0,0,1,10.87,13.9,6.643,6.643,0,0,1,6.592,12.674ZM6.358,30.662q-4.746-4.98-5.1-6.68t2.813-4.1q4.395-.821,5.127.263T10.665,22.4A27.433,27.433,0,0,1,12.1,25.037a6.09,6.09,0,0,1,.528,3.281,3,3,0,0,1-1.553,2.549Q9.7,31.6,6.358,30.662ZM2.725,55.154Q1.9,54.215,2.139,51.2A20.352,20.352,0,0,1,2.9,46.6,18.116,18.116,0,0,1,5.245,42.41Q7.06,39.8,14.971,35.935A9.6,9.6,0,0,1,16.553,40.8a9.249,9.249,0,0,1-.849,4.013,17.839,17.839,0,0,1-1.875,3.135,27.951,27.951,0,0,1-3.545,3.574,28.311,28.311,0,0,1-3.34,2.7q-.822.468-1.846.938A3.112,3.112,0,0,1,2.725,55.154Zm30.41,1.523a4.913,4.913,0,0,1-2.343-4.16V47.185q0-2.812.175-10.488a40.038,40.038,0,0,0-5.742.293q-.175,2.284-.7,2.754H20.714q-1.465-.468-1.758-3.6t-.293-11.513q0-8.379.029-9.522a6.885,6.885,0,0,1,.645-2.549,5.179,5.179,0,0,1,1.347-1.992q.732-.585,3.633-.7A71.958,71.958,0,0,0,31.612,9.1V1.189A25.883,25.883,0,0,1,34.6.252,15.887,15.887,0,0,1,38.409.193a7.543,7.543,0,0,1,1.172,4.072,37.794,37.794,0,0,1-.41,5.127l7.089.117q3.869.646,4.659,1.729a11.556,11.556,0,0,1,1.318,4.482q0,12.832-.41,14.561t-.85,3.164a22.846,22.846,0,0,1-1.084,2.842,75.994,75.994,0,0,0-11.367.176q0,6.8-.088,8.759t-.205,4.688a37.4,37.4,0,0,1-.41,4.453,2.667,2.667,0,0,1-1.758,2.256A4.443,4.443,0,0,1,33.135,56.677Zm-2.168-26.66q.41-7.5.352-10.283t-1.67-2.959a14.131,14.131,0,0,0-4.307.41q-.058,7.208.235,12.539A17.549,17.549,0,0,0,30.967,30.017Zm15.645-.82a33.615,33.615,0,0,0,.469-5.244q0-2.314.029-4.131t-1-2.344a10.85,10.85,0,0,0-4.219-.527q-3.195,0-3.34,3.369t-.029,9.7A30.536,30.536,0,0,0,46.612,29.2Z"/><path class="a" d="M69.594,55.916a4.408,4.408,0,0,1-1.67-3.076q-.146-1.788-.205-7.559t.469-12.92q-1,.176-3.808.879t-3.985.146q-1.173-.555-1.289-2.666t.615-2.607a4.624,4.624,0,0,1,2.491-.5,9.239,9.239,0,0,0,2.314-3.047q.968-1.934,1.9-4.219a15.625,15.625,0,0,1-2.7-1.494,19.6,19.6,0,0,1-3.018-2.373,3.8,3.8,0,0,1-1.142-3.1,4.129,4.129,0,0,1,1.084-2.813q.966-.936,1.435-.674t1.319-.879A46.908,46.908,0,0,0,66.2,4.3Q68.13.72,70.239.134t2.4,1.377a7.248,7.248,0,0,1-.908,4.336q-1.2,2.373-3.252,6.065a9.027,9.027,0,0,0,2.344,2.109A12.77,12.77,0,0,0,72.964,11.3,22.569,22.569,0,0,1,75.63,7.869,1.519,1.519,0,0,1,78,7.81a4.649,4.649,0,0,1,1.347,3.223q.146,2.109-2.373,5.537T73.52,21.58q-.937,1.581-1.875,3.34,2.519-.468,6.445-1.055a12.541,12.541,0,0,1-.556-2.373,1.888,1.888,0,0,1,.439-1.7q.585-.556,1.905,0a3.691,3.691,0,0,1,1.933,2.49,31.938,31.938,0,0,1,1.055,5.391q.44,3.457.088,4.072t-1.9.439A3.384,3.384,0,0,1,78.5,30.076a14.413,14.413,0,0,0-4.512.7q.117,10.02.2,15.586t-.088,7.676Q73.931,56.15,69.594,55.916Zm-8.613-5.684a4.3,4.3,0,0,1-.41-5.3q1.64-2.664,2.4-3.75a2.842,2.842,0,0,1,1.494-1.259,1.25,1.25,0,0,1,1.289.439A4.219,4.219,0,0,1,66.313,43a8.812,8.812,0,0,1-1.142,4.16A7.626,7.626,0,0,1,63.3,49.763,4.413,4.413,0,0,1,60.981,50.232Zm18.281-1.523a2.475,2.475,0,0,1-1.7-1.758,19.7,19.7,0,0,0-.879-2.695,14.542,14.542,0,0,1-.82-2.725,12.235,12.235,0,0,1-.234-2.2,1.434,1.434,0,0,1,.468-1.26,1.588,1.588,0,0,1,1.231-.176,3.437,3.437,0,0,1,1.64,1,17.189,17.189,0,0,1,1.377,1.465,10.728,10.728,0,0,1,1.172,2.051,7.135,7.135,0,0,1,.7,2.9,5.74,5.74,0,0,1-.234,2.11Q81.723,48.065,79.262,48.709ZM100.883,55.1a11.561,11.561,0,0,1-4.013-.615q-1.319-.556-1.67-3.047t-.7-6.24q-2.58,0-5.86-.117T84.3,43.259A24.517,24.517,0,0,1,83.13,32.185a66.723,66.723,0,0,1,.7-6.972,3.66,3.66,0,0,1,2.812-1.407h8.731V21.931a37.922,37.922,0,0,1-5.127-.7,11.442,11.442,0,0,1-4.834-2.344,32.91,32.91,0,0,1-.762-8.437,69.013,69.013,0,0,1,.527-8.672Q85.3-.217,97.133.486l10.489.586a3.682,3.682,0,0,1,2.988,1.934q.408,4.042.469,7.207t-.059,5.6a12.873,12.873,0,0,1-1,4.483,11.459,11.459,0,0,1-4.307,1.582,18.937,18.937,0,0,1-4.482.058v1.875h10.137l1,1.231a46.248,46.248,0,0,1,.82,7.558v9.727q-.587,2.284-1.641,2.783a9.787,9.787,0,0,1-2.871.733h-6.855a9.857,9.857,0,0,0-.117,2.636,65.688,65.688,0,0,1,7.383-.175,2.788,2.788,0,0,0,2.285-.938,4.839,4.839,0,0,1,1.289-1.67.907.907,0,0,1,1.113.147,14.366,14.366,0,0,1,.469,4.013,15.551,15.551,0,0,1-.7,4.073q-1,1.756-3.457,1.171ZM94.848,41.384V37.107l-6.152.41a4.288,4.288,0,0,0,.586,3.106A9.92,9.92,0,0,0,94.848,41.384Zm.176-8.789v-.7l.117-3.808a31.909,31.909,0,0,0-6.152.293L88.872,32.6Zm.469-15.117-.117-1,.117-3.1H89.575l-.059,2.871a27.691,27.691,0,0,1,2.783.7A12.486,12.486,0,0,0,95.493,17.478Zm0-8.32V5.877a19.064,19.064,0,0,0-5.918.644v3.34Zm11.074,0V7.927l-.117-1.406a6.661,6.661,0,0,0-2.637-.644h-2.754V9.334Zm-.469,7.09.469-.235V13.142a45.746,45.746,0,0,1-5.332.235V17.42A8.185,8.185,0,0,0,106.1,16.248Zm2.637,15.937v-1.23l-.41-2.344a32.54,32.54,0,0,0-7.031-.527V32.6A68.249,68.249,0,0,0,108.735,32.185Zm-.41,8.555a9.361,9.361,0,0,0,.41-3.633h-7.266q.057,2.286.118,4.277A40.9,40.9,0,0,0,108.325,40.74Z"/><path class="a" d="M134.882,54.392a5.746,5.746,0,0,1-2.607-2.49,8.011,8.011,0,0,1-.557-3.135,4.147,4.147,0,0,1,.7-2.666,5.445,5.445,0,0,1,1.728-1.377q1.024-.526,3.106-1.406a19.5,19.5,0,0,0,3.955-2.256,25.423,25.423,0,0,0,3.955-3.75,22.643,22.643,0,0,0,3.6-5.83,50.35,50.35,0,0,0,2.578-7.441,23.5,23.5,0,0,0,.7-8.086,36.008,36.008,0,0,0-7.793-2.08,50,50,0,0,0-7.705-.674q-3.427,0-4.629.849a3.545,3.545,0,0,0-1.376,1.407,15.83,15.83,0,0,0-.323,2.754,5.464,5.464,0,0,1-1.025,3.222,3.358,3.358,0,0,1-2.49,1.114,4.278,4.278,0,0,1-2.725-.674,5.813,5.813,0,0,1-1.641-1.582,7.824,7.824,0,0,1-.879-2.578q-.351-1.758-.849-4.483a25.737,25.737,0,0,1-.322-6.006q.175-3.281,1.025-3.984a3.376,3.376,0,0,1,2.227-.7q1.376,0,6.181-.147a34.151,34.151,0,0,1,6.533.205,21.145,21.145,0,0,0,4.161.352q2.43,0,6.152.059t7.236.234a8.9,8.9,0,0,1,6.006,2.637q2.49,2.46,2.49,8.7t-.146,8.994a19.364,19.364,0,0,1-.5,3.955,26.735,26.735,0,0,1-1.524,3.633q-1.173,2.431-2.4,4.834a49.737,49.737,0,0,1-3.164,5.244,50.3,50.3,0,0,1-5.684,6.65,39.814,39.814,0,0,1-5.83,5.157Q140.977,54.392,134.882,54.392Z"/><path class="a" d="M173.509,33.3q-4.393-1.113-4.863-3.282t.147-2.959a2.142,2.142,0,0,1,1.963-.7,10.742,10.742,0,0,0,3.4-.469,31.877,31.877,0,0,1,4.453-.849q2.4-.293,8.145-.7a56.926,56.926,0,0,1,7.5-.235l3.808.381a4.654,4.654,0,0,1,2.666.82,4.965,4.965,0,0,1,1.055,2.022,2.751,2.751,0,0,1-.264,2.461,5.666,5.666,0,0,1-2.168,1.816,13.278,13.278,0,0,1-3.4,1.172Q194.018,33.182,173.509,33.3Z"/><path class="a" d="M214.247,55.974q-.3-3.106,1.084-4.629t2.812-3.076q1.435-1.551,2.637-3.076a27.347,27.347,0,0,0,2.021-2.9,19.775,19.775,0,0,0,1.436-2.959q.615-1.582,1.055-2.959t.791-3.018l1.7-12.246a7.279,7.279,0,0,0-3.633.117q-2.167.528-4.394,4.1l-3.047,4.394a25.062,25.062,0,0,1-3.955,4.16,2.663,2.663,0,0,1-2.022.264,2.357,2.357,0,0,1-1.641-1.406,14.81,14.81,0,0,1-.937-3.311l-.41-4.336q1.934-3.807,4.219-7.529a26.166,26.166,0,0,0,3.252-8.057q.966-4.335,1.582-6.357T218.319.808a20.86,20.86,0,0,1,4.893-.322,3.709,3.709,0,0,1,2.519,3.75,16.961,16.961,0,0,1-1.025,3.281,3.85,3.85,0,0,0-.5,2.344h2.109l6.738-.352q3.4-.643,6.035-.937a38.534,38.534,0,0,1,6.446-.059q3.748,1.524,4.013,2.9a3.545,3.545,0,0,1-.849,2.842,11.022,11.022,0,0,1-2.988,2.636,7.906,7.906,0,0,1-4.043,1.231,11.759,11.759,0,0,0-4.512,1.113,126.705,126.705,0,0,1-2.256,15.5q-1.086,4.249-1.436,5.947t-.82,3.252a24.7,24.7,0,0,1-2.519,4.893,12.892,12.892,0,0,1-4.629,4.746,29.859,29.859,0,0,1-5.391,2.285A10.639,10.639,0,0,1,214.247,55.974Z"/><path class="a" d="M261.018,33.3q-4.393-1.113-4.863-3.282t.146-2.959a2.144,2.144,0,0,1,1.963-.7,10.744,10.744,0,0,0,3.4-.469,31.848,31.848,0,0,1,4.453-.849q2.4-.293,8.144-.7a56.931,56.931,0,0,1,7.5-.235l3.809.381a4.654,4.654,0,0,1,2.666.82,4.965,4.965,0,0,1,1.055,2.022,2.751,2.751,0,0,1-.264,2.461,5.666,5.666,0,0,1-2.168,1.816,13.292,13.292,0,0,1-3.4,1.172Q281.527,33.182,261.018,33.3Z"/><path class="a" d="M300.641,32.83a13.829,13.829,0,0,1-3.6-3.692,9.217,9.217,0,0,1-1.67-5.39q0-2.988,2.051-3.311a4.016,4.016,0,0,1,3.545,1.084q1.494,1.407,2.988,2.783t3.135,2.959q1.638,1.582,2.4,2.256a2.768,2.768,0,0,1,.586,2.432q-.175,1.758-1.319,2.109a8.7,8.7,0,0,1-2.929.264A17.3,17.3,0,0,1,300.641,32.83Zm-4.336,21.8a10.553,10.553,0,0,1,0-4.688q.469-3.456,2.578-4.277t6.8-2.754q4.688-1.934,9.492-4.248a19.968,19.968,0,0,0,7.266-5.479,30.146,30.146,0,0,0,4.014-6.855q1.551-3.692,2.871-6.885a32.39,32.39,0,0,0,1.963-7.148q.643-3.955,1.816-4.453a8.2,8.2,0,0,1,3.985-.088q1.581,1.581,1.318,6.972a71.815,71.815,0,0,1-2.139,13.1q-1.877,7.706-3.808,10.635a27.385,27.385,0,0,1-4.248,5.068,39.787,39.787,0,0,1-5.508,4.19q-3.195,2.05-6.211,3.72a36.859,36.859,0,0,1-8.2,3.047q-5.185,1.377-7.852,1.787A3.959,3.959,0,0,1,296.305,54.627Zm19.864-33.516a9.309,9.309,0,0,1-4.864-3.4A48.575,48.575,0,0,1,308,12q-1.73-3.427-1.641-4.864a2.1,2.1,0,0,1,1.436-1.962,7.877,7.877,0,0,1,2.9-.528,5.963,5.963,0,0,1,2.754.615,9.412,9.412,0,0,1,2.695,2.432,26.741,26.741,0,0,0,3.4,3.428q1.9,1.611,2.812,2.461t.85,4.717l-.645,1.347A10.842,10.842,0,0,1,316.169,21.111Z"/><path class="a" d="M349.7,55.8a17.34,17.34,0,0,1-2.842-.909,4.215,4.215,0,0,1-1.318-1.289,4.076,4.076,0,0,1-.7-2.461,2.664,2.664,0,0,1,.556-1.992,3.851,3.851,0,0,1,1.319-.762,7.319,7.319,0,0,1,2.255-.263,14.129,14.129,0,0,0,3.077-.352,10.564,10.564,0,0,0,2.49-.82,2.3,2.3,0,0,0,1.142-1.026,11.693,11.693,0,0,0,.5-2.314,3,3,0,0,0-.263-2.344l-2.461.235q-5.45.058-6.211-.323a3.459,3.459,0,0,1-1.231-1,4.862,4.862,0,0,1-.468-2.636q0-2.022,1.582-2.432a15.513,15.513,0,0,1,3.838-.41,23.58,23.58,0,0,1,3.955.293,9.189,9.189,0,0,0,1-4.16,6.685,6.685,0,0,0-1.231-3.926q-1.758-.175-3.6-.352a14.343,14.343,0,0,1-3.487-.761,13.428,13.428,0,0,1-2.255-.967,2.861,2.861,0,0,1-1.026-1.553,3.371,3.371,0,0,1,0-2.314,2.641,2.641,0,0,1,1.553-1.612,7,7,0,0,1,2.666-.469q1.524,0,7.324-.293t7.91,1.524a6.458,6.458,0,0,1,2.373,4.307q.264,2.49.5,7.031a31.189,31.189,0,0,1-.41,7.705,26.061,26.061,0,0,0-.644,4.57,29.851,29.851,0,0,1-.235,3.4q-.234,1.992-.351,2.9a5.738,5.738,0,0,1-.469,1.67,2.992,2.992,0,0,1-1.611,1.318q-1.261.556-2.9,1.2a26.032,26.032,0,0,1-3.31,1.055q-1.669.409-2.725.586A22.66,22.66,0,0,1,349.7,55.8Z"/><path class="a" d="M383.521,22.283a22.174,22.174,0,0,1-4.189-2.432,23.85,23.85,0,0,1-3.78-3.633,16.125,16.125,0,0,1-2.724-4.16,2.312,2.312,0,0,1,.761-3.047,7.115,7.115,0,0,1,3.721-1.318,11.846,11.846,0,0,1,5.567,1.377,28.769,28.769,0,0,1,5.566,3.223,7.482,7.482,0,0,1,2.695,3.222q.528,1.554-1.025,3.662a12.683,12.683,0,0,1-2.9,3.018A4.052,4.052,0,0,1,383.521,22.283Zm-6.094,29.3q-2.4-1.523-2.578-5.508t3.545-4.043a51.568,51.568,0,0,0,9.961-1.465q6.24-1.405,8.613-3.955a31.571,31.571,0,0,0,4.834-7.617,31.327,31.327,0,0,0,3.047-9.551,44.524,44.524,0,0,0,.264-8.965q-.322-4.482,4.922-4.306t6.533,2.05a42.276,42.276,0,0,1-2.4,20.479q-3.75,10.05-6.475,13.711a30.879,30.879,0,0,1-5.039,5.537A23.451,23.451,0,0,1,396,51.4a37.54,37.54,0,0,1-9.493,2.051A14.684,14.684,0,0,1,377.427,51.58Z"/><path class="a" d="M109.958,128.267q-3.516-.762-4.219-1.875t-.176-8.525q.528-7.412,0-22.354t-.644-17.461a10.122,10.122,0,0,1,.527-4.16q.645-1.639,3.31-1.582t7.325.235q4.658.176,6.738.234a5.427,5.427,0,0,1,2.959.7q.879.645,1.787,1.406a3.282,3.282,0,0,1,1.143,1.875q.232,1.114.673,3.164a15.559,15.559,0,0,1,.235,4.541q-.207,2.492-.44,3.75a13.941,13.941,0,0,0-.234,2.549,3.5,3.5,0,0,1-1.318,2.52,2.8,2.8,0,0,1-2.784.82,8.264,8.264,0,0,0-4.043.234,27.942,27.942,0,0,0-3.251.938q-.675.294-.791,1.787t-.264,3.545q-.147,2.052-.44,6.563-.234,17.343-1.464,19.921Q113.062,128.619,109.958,128.267Zm12.714-46.64a5.8,5.8,0,0,0-1.289-4.278l-6.914.059a2.906,2.906,0,0,0-1.406,3.31q.469,2.082,3.428,1.729T122.672,81.627Zm.352,8.2a24.344,24.344,0,0,0-.117-2.93q-.118-.819-4.395-1t-4.6,1.289q-.323,1.466,1.377,3.106Zm.352,33.105a3.154,3.154,0,0,1-2.286-2.7q2.519-1.522,2.989-3.047t1.172-4.863q-5.684,0-6.446-.586a6.14,6.14,0,0,1,.586-3.34l6.5-.234-.176-4.395-3.984-.176a5.408,5.408,0,0,1-1.523-3.4,4.664,4.664,0,0,1,2.871-1q2.166-.234,6.562-.235t7.354.118q2.957.117,3.779,1.113l.352,2.578-3.985.82.117,4.219q3.106.119,4.16.234a2.1,2.1,0,0,1,1.583.879,2.327,2.327,0,0,1-1.465,2.637l-4.278.41.235,9.668q-.587,1.114-4.219.469a18.125,18.125,0,0,1-.5-5.332q.145-2.7.146-4.453h-3.4q-.175,1.758-.264,3.574a10.989,10.989,0,0,1-.674,3.369,5.545,5.545,0,0,1-1.435,2.285q-.849.733-1.377,1.172A3.549,3.549,0,0,1,123.376,122.935Zm9.55-15.351.528-3.985-3.34-.175-.234,4.394ZM148.688,127.8a12.254,12.254,0,0,1-4.453-.792,5.187,5.187,0,0,1-2.725-1.933,2.757,2.757,0,0,1-.263-2.373q.408-1.23,2.4-1.289a6.664,6.664,0,0,0,3.574-1.113q-1.055-16.407-1.318-18.956a48.944,48.944,0,0,0-1.26-6.533A17.308,17.308,0,0,0,138.9,93.9a8.986,8.986,0,0,1-4.043-.615q-1.817-2.343-2.578-7.852.526-5.273.644-6.445a10.537,10.537,0,0,1,.762-2.783q.645-1.611,3.4-3.018a158.636,158.636,0,0,1,15.937-.234q2.519,1.406,2.871,2.285T156.1,92q-.145,15.879.557,23.847.408,9.141-.117,10.137T148.688,127.8Zm.469-41.25q-3.81-.587-5.537-.7a12.142,12.142,0,0,0-2.989.118q-1.26.234-1.2,2.168t2.9,2.109q2.841.176,4.658.234T149.157,86.549Zm-.235-5.625q.761-3.4-1-3.6t-6.5-.381a2.441,2.441,0,0,0-1.64,1.963,5.306,5.306,0,0,0,1.172,3.193Q147.458,82.8,148.922,80.924Z"/><path class="a" d="M166.28,128.443a8.5,8.5,0,0,1-.82-3.75,6.174,6.174,0,0,1,.586-3.047,4.6,4.6,0,0,1,2.431-1.7q1.846-.7,3.135-1.084t2.578-.762a2.469,2.469,0,0,0,1.67-1.2q.381-.819,2.373-4.277a30.814,30.814,0,0,0-2.344-2.227,3.387,3.387,0,0,0-1.992-1,1.782,1.782,0,0,0-1.318.5,2.61,2.61,0,0,1-1.377.674,4.372,4.372,0,0,1-2.227-.293,2.462,2.462,0,0,1-1.67-1.934q-.322-1.464.7-6.65t1.934-8.672a53.688,53.688,0,0,1,1.846-5.889,30.015,30.015,0,0,1-4.893-1.552,3.135,3.135,0,0,1-1.377-1.67,5.2,5.2,0,0,1-.381-2.344q.089-1.171,1.993-1.582a20.36,20.36,0,0,1,6.24.176q.644-1.758,1.377-3.985a6.625,6.625,0,0,1,1.611-2.959,3.9,3.9,0,0,1,2.549-.732,3.02,3.02,0,0,1,2.256.645,2.8,2.8,0,0,1,.586,1.933,49.464,49.464,0,0,1-.528,5.215q5.859,0,6.973-.088a2.848,2.848,0,0,1,2.168.879,3,3,0,0,1,1.055,2.285q0,1.318-1.934,2.432-.647,4.512-.791,7.676a38.27,38.27,0,0,1-1.025,6.914q-.879,3.75-1.26,5.625t-1.084,4.218a51.94,51.94,0,0,1,4.043,4.131,7.194,7.194,0,0,1,.527,2.637,10.449,10.449,0,0,1-.263,3.662,5.049,5.049,0,0,1-.967,2.109,5.8,5.8,0,0,1-1.7,1.055,13.024,13.024,0,0,1-2.608-2.021q-.909-.968-2.9-3.487a26.059,26.059,0,0,1-3.985,5.45,13.874,13.874,0,0,1-3.867,3.134A17.9,17.9,0,0,1,169.8,128,20.106,20.106,0,0,1,166.28,128.443ZM181.221,106.3a23.269,23.269,0,0,0,1.319-4.571q.44-2.4,1-7.207a69.051,69.051,0,0,0,.556-7.383h-4.511a20.523,20.523,0,0,1-.821,3.077q-.526,1.494-1.025,3.046t-1.377,4.395a14.026,14.026,0,0,0-.586,5.654,8.675,8.675,0,0,1,3.193,1.465A25.4,25.4,0,0,0,181.221,106.3Zm34.043-5.743q-1.7-.585-2.285-3.632a20.865,20.865,0,0,0-4.365.849,46.672,46.672,0,0,1-7.588,1.26q-4.4.411-7,.557t-2.959-.85a11.141,11.141,0,0,1-.351-3.34,8.054,8.054,0,0,1,1.992-4.892,20.2,20.2,0,0,0,2.841-4.629q.849-2.081,1.612-4.131t1.7-4.16q.936-2.111,1.318-3.194a1.972,1.972,0,0,1,1.817-1.259,3.882,3.882,0,0,1,2.607.556q1.172.734,1.084,3.516A17.15,17.15,0,0,1,204.4,83a35.559,35.559,0,0,1-2.021,4.423,7.568,7.568,0,0,0-1,3.047q2.46,0,3.75-.117a27.077,27.077,0,0,0,4.746-1.23q-.235-5.332.761-5.86a2.8,2.8,0,0,1,2.256-.117,3.191,3.191,0,0,1,1.846,1.406q.585,1,1.406,2.608a17.29,17.29,0,0,1,1.319,3.545,26.933,26.933,0,0,1,.585,5.683Q218.135,100.144,215.264,100.552Zm-13.711,27.129q-4.394-.234-6.035-1.2a3.564,3.564,0,0,1-1.728-3.164q-.088-2.2-.088-7.764t.088-7.91a4.3,4.3,0,0,1,1.084-3.193q1-.849,7.47-.733t7.881.7a5.266,5.266,0,0,1,2.168,1.552,8.29,8.29,0,0,1,1.26,2.373,24.257,24.257,0,0,1,.527,6.241,54.563,54.563,0,0,1-.7,9.257Q212.743,128.267,201.553,127.681Zm5.918-6.328a21.518,21.518,0,0,0,.7-5.039q0-2.167.118-4.1a10.208,10.208,0,0,0-4.717-1.641,20.125,20.125,0,0,0-4.248.527,28.58,28.58,0,0,0-.176,8.965,7.4,7.4,0,0,0,4.189,1.289Z"/><path class="a" d="M236.021,127.33q-5.449-1.29-7.441-2.813a4.793,4.793,0,0,1-1.875-4.277,16.511,16.511,0,0,1,1.406-5.772q1.287-3.017,5.859-4.277a71.735,71.735,0,0,1,8.555-1.846l.82-3.457q-13.535,0-15.146-1.025a3.921,3.921,0,0,1-1.758-3.281,3.847,3.847,0,0,1,1.406-3.487q1.551-1.23,2.725-.673a8.73,8.73,0,0,0,3.574.556,45.891,45.891,0,0,0,8.555-1.406l.293-2.461a9.71,9.71,0,0,0-4.307-1.523,58.215,58.215,0,0,0-7.3-.7q-4.218-.176-5.01-1.377a7.561,7.561,0,0,1-1.054-2.226,4.271,4.271,0,0,1,.351-2.578,4.227,4.227,0,0,1,1.905-2.256q1.287-.7,6.8-.7,5.389.762,6.562.029a3.614,3.614,0,0,0,1.465-1.406,7.4,7.4,0,0,0,.439-2.051q.145-1.376.323-2.93a3.053,3.053,0,0,1,1.142-2.255,4.287,4.287,0,0,1,2.578-.7,5.275,5.275,0,0,1,3.516,1.934q1.9,1.933,1.611,8.438a37.669,37.669,0,0,1,11.133,1.64,3.39,3.39,0,0,1,1.816,2.871,6.914,6.914,0,0,1-.673,3.076,4.216,4.216,0,0,1-1.612,1.905,12.516,12.516,0,0,1-3.047,1.025,24.712,24.712,0,0,1-4.511.615,11.747,11.747,0,0,0-4.043.821l-.352,2.226a20.035,20.035,0,0,1,4.688-.41,15.973,15.973,0,0,1,5.507.879q2.4.879,2.549,2.08a2.983,2.983,0,0,1-.674,2.256,4.474,4.474,0,0,1-2.9,1.406q-2.081.353-4.482.527a9.917,9.917,0,0,0-4.1,1.114l-.7,2.812q4.043.352,6.3.352a9.928,9.928,0,0,1,4.336,1,14.144,14.144,0,0,1,3.457,2.256,14.34,14.34,0,0,1,2.666,3.545,49.9,49.9,0,0,1-.088,5.156,9.016,9.016,0,0,1-.967,2.871,3.688,3.688,0,0,1-2.168,2.051q-3.459-5.155-5.83-6.856a7.337,7.337,0,0,0-3.662-1.7q0,4.1-1,5.8a10.439,10.439,0,0,1-4.219,3.4Q246.217,127.213,236.021,127.33Zm7.852-6.621q1.406-2.637.351-3.75a5.869,5.869,0,0,0-3.281-1.524,5.153,5.153,0,0,0-3.545.352q-1.319.762-1.611,4.043a2.874,2.874,0,0,0,2.373,2.051Q240.181,122.408,243.873,120.709Z"/><path class="a" d="M298.437,127.681q-2.58-1.992-5.215-4.394a14.4,14.4,0,0,1-3.925-6.5,34.412,34.412,0,0,1-1.524-6.445,66.805,66.805,0,0,1-.176-6.914q.057-4.571,4.16-15.352-2.285-.351-8.2,2.109l-6.562,1.875a3.417,3.417,0,0,1-2.373-2.783q-.147-1.787-.44-3.6a11.028,11.028,0,0,1,.235-4.161,3.638,3.638,0,0,1,2.871-2.46q1.815-.177,4.512-.5t5.332-.849q2.635-.528,5.214-.938a34.45,34.45,0,0,0,5.274-1.289,25.6,25.6,0,0,1,6.211-1.113,25.42,25.42,0,0,1,1.64,8.555q-4.452,4.57-5.449,6.591t-2.226,4.366a37.557,37.557,0,0,0-2.08,4.687,19.35,19.35,0,0,0-1.055,5.244,18.693,18.693,0,0,0,.088,4.483,20.853,20.853,0,0,0,1.113,3.691A13.92,13.92,0,0,0,298.2,115.9a54.723,54.723,0,0,0,5.976,5.566l2.52,2.286q-1.35.994-2.637,1.787t-2.607,1.464A6.542,6.542,0,0,1,298.437,127.681ZM303.593,96.1q-1.524-.819-1.259-5.244t2.431-4.775q3.516,1.055,2.637,6.679Q307.344,97.273,303.593,96.1Zm5.508-2.7a20.636,20.636,0,0,1-.5-6.738q.381-2.111,3.838-1.992,1.347,1.347,1.289,4.482a7.429,7.429,0,0,1-1.23,4.57Q311.326,95.163,309.1,93.4Z"/></svg>