<svg xmlns="http://www.w3.org/2000/svg" viewBox="0 0 1250 767"><defs><style>.a{isolation:isolate;}.b{fill:#48d7fb;}.ac,.af,.b,.d,.i,.j,.m,.o,.p,.t,.u,.w,.y,.z{mix-blend-mode:multiply;}.c,.d{fill:#99c539;}.d,.e,.o,.u{opacity:0.5;}.e{fill:#9ca213;}.aa,.ab,.ad,.ag,.e,.k,.x{mix-blend-mode:screen;}.f{fill:#a0d8ec;}.g{fill:#009dd5;}.g,.j,.t,.z{opacity:0.7;}.h,.i,.j,.p,.q{fill:#19bfe8;}.h{mix-blend-mode:color-dodge;}.aa,.ac,.af,.h,.i,.k,.n{opacity:0.4;}.ag,.k,.x{fill:#cbe7ef;}.l,.m,.z{fill:#f7c867;}.ab,.n{fill:#fff;}.ac,.ad,.r,.t,.u,.w{fill:#cb8a65;}.s{fill:#97470e;}.v{fill:#cbb2a1;}.x{opacity:0.8;}.aa{fill:#f8d1e3;}.ae,.af{fill:#895d43;}.ag{opacity:0.6;}.ah{fill:none;}.ai{fill:#f6de90;}</style></defs><g class="a"><rect class="b" x="-9.91" y="-13.416" width="1273.669" height="736.145"/><path class="c" d="M29.168,431.928c14.467-6.449,28.894-11.9,44.319-12.344,14.818-.43,29.392,3.236,43.617,8.371,1.614.582,3.226,1.19,4.832,1.808,6.674,2.972,13.272,6.124,19.948,9.093,10.664,4.743,21.643,9.11,33.18,11.191,12.271,2.211,24.72,1.609,36.97-.472,26.273-4.457,50.968-15.132,77.116-20.084,25.155-4.764,50.788-2.615,75.636,2.887,41.877,9.274,82.266,26.876,125.039,31.289v15.122H-17.642v-31.1C-1.759,445.286,13.932,438.72,29.168,431.928Z"/><path class="d" d="M29.168,431.928c14.467-6.449,28.894-11.9,44.319-12.344a86.053,86.053,0,0,1,9.916.307c-8.737-.469-17.483.633-25.092,5.421a.453.453,0,0,0,.348.823,48.72,48.72,0,0,1,8.22-.556,16.691,16.691,0,0,0-8.206,3.4.453.453,0,0,0,.319.768c2.822-.223,5.65-.333,8.479-.391-.694.136-1.386.278-2.067.448-1.675.414-4.661.951-5.481,2.754-.87,1.913,2.551,3.223,3.738,3.676a90.714,90.714,0,0,0,16.917,4.486c11.733,2.018,23.713,2.652,35.567,3.619,11.812.964,23.671,1.729,35.525,1.153a.455.455,0,0,0,.388-.676,14.365,14.365,0,0,0-1.234-2.152,123.427,123.427,0,0,0,24.24,7.379c12.271,2.211,24.72,1.609,36.97-.472,25-4.242,48.576-14.092,73.332-19.306a118.72,118.72,0,0,1-13.6,5.2c-7.539,2.589-15.874,4.208-21.741,10.015-.256.254-.086.815.32.768,3.147-.37,6.425-.328,9.515-1.083,1.849-.453,3.66-1.034,5.489-1.559-3.239,1.379-6.63,2.579-9.024,5.173-.291.312-.011.9.437.752a29.724,29.724,0,0,1,7.486-1.258c24.169,3.569,48.842,2.458,73.166,1.593,10.014-.354,20.162-.734,30.141-1.719,7.551-.747,16.512-1.6,22.785-6.309a.46.46,0,0,0,.092-.708,34.415,34.415,0,0,0-3.875-3.257c34.247,9.517,67.943,22.152,103.264,25.794v15.122H-17.642v-31.1C-1.759,445.286,13.932,438.72,29.168,431.928Z"/><path class="d" d="M381.307,458.652c-40.805.783-81.658.254-122.473.257q-62.03.007-124.051-1.13-31.018-.577-62.026-1.433c-10.115-.283-20.229-.406-30.348-.435-5.06-.015-10.125.024-15.185-.018a33.618,33.618,0,0,1-7.52-.632c-4.792-1.15-7.172-4.363-5.4-9.218,2-5.471,7.061-9.585,11.82-12.763-14.281,6.294-28.939,12.166-43.766,14.406v31.1H489.825V463.667a262.561,262.561,0,0,1-33.607-5.895C431.262,458.474,406.244,458.172,381.307,458.652Z"/><path class="e" d="M315.926,430.531a115.6,115.6,0,0,1,32.361,1.764c5.856,1.189,11.749,1.643,17.576,3.149,6.077,1.572,12.127,3.3,18.24,4.722.183.044.752.726.4.768-4.52.526-10.03-1.51-14.44-2.466-5.8-1.258-11.572-2.353-17.454-3.152-5.73-.778-11.351-2.023-17.1-2.7-6.42-.763-12.621-1.009-19.07-1.242C316.149,431.359,315.575,430.558,315.926,430.531Z"/><path class="e" d="M88.255,424.61A133.077,133.077,0,0,1,103.2,426.8c4.7,1.069,8.943,2.995,13.536,4.387s8.956,3.291,13.518,4.761c4.352,1.4,7.669,4.328,12.129,5.492.152.039.595.629.328.626-4-.034-6.313-2.177-10-3.268-4.892-1.446-9.75-3.183-14.652-4.566-4.607-1.3-8.786-3.619-13.55-4.416-2.622-.437-5.091-1.556-7.687-2.125-2.77-.6-5.482-.849-8.15-1.847C88.363,425.723,87.553,424.533,88.255,424.61Z"/><rect class="f" x="-8.852" y="461.199" width="1269.262" height="311.446"/><rect class="g" x="-8.852" y="461.199" width="1269.262" height="311.446"/><path class="h" d="M1124.131,497.932a173.888,173.888,0,0,1,33.707-5.843c24.5-2.033,49.234-.786,73.8-.147,9.584.252,19.185.31,28.77.241V461.2H-8.852v37.708c37.73-1.043,75.98,1.986,113.424,5.151,19.589,1.656,39.2,3.459,58.9,4.329,20.736.917,41.536.991,62.3.529,41.256-.917,82.315-3.988,123.55-5.235,20.451-.624,40.931-1,61.4-.828,18.641.157,37.462.508,55.992,2.012,19.458,1.583,39.865,4.135,57.709,9.91,7.295,2.364,15.894,5.7,19.112,11.147,3.763,6.367-2.248,11.948-9.25,15.81-9.851,5.43-21.423,9.014-32.611,12.886-16.209,5.618-33.188,10.356-50.3,14.507a488.344,488.344,0,0,1-58.987,10.795c-20.013,2.327-40.252,3.668-60.533,4.119-41.143.917-82.307-1.436-123.1-4.968-72.057-6.247-145.966-15.344-217.6-4.727v198.3H1260.41V540.071c-6.4-1.336-12.892-2.468-19.411-3.448-36.657-5.518-74.9-6.776-110.265-15.974-6.31-1.64-12.861-3.474-18.232-6.346-3.3-1.771-7.064-4.58-5.377-7.724C1109.568,502.014,1118.23,499.635,1124.131,497.932Z"/><path class="i" d="M17.26,480.932c27.3-2.146,54.538-1.13,81.943-.674,58.3.967,116.6,2.194,174.909,2.864,46.649.538,93.318.54,139.953-.429,47.026-.975,93.955-4.012,140.983-4.51,92.59-.982,184.634,6.291,276.705,11.977,23.1,1.431,46.216,2.767,69.358,3.821,22.916,1.043,45.849,2.127,68.818,1.163,46.006-1.933,90.949-9.155,136.5-13.5,43.879-4.185,87.779-4.222,131.972-3.949q11.005.067,22.01.026V461.2H-8.852v22.018C-.129,482.465,8.581,481.616,17.26,480.932Z"/><path class="j" d="M50.982,470.21c21.049.666,42.107.041,63.124-.876q31.916-1.391,63.882-1.915c32.227-.582,64.535-1.011,96.745.163,32.1,1.171,64.094,3.387,96.208,4.375,64.2,1.976,127.85-4.553,191.9-6.328,32.523-.9,64.8.3,97.284,1.271,32.822.985,65.675,1.905,98.4,4.009,37.941,2.44,76.118,5.4,114.284,6.139,6.289-.356,12.567-.791,18.835-1.173,18.336-1.114,36.746-1.344,55.067-2.613,19.112-1.323,38.046-3.631,57.137-5.13,19.2-1.5,38.471-2.623,57.8-3.032,29.651-.626,59.254.789,88.889,1.407,29.264.608,58.615.548,87.889.04q10.974-.189,21.989-.446v-4.9H-8.852v10.279c.226-.016.456-.031.682-.052C1.585,470.6,41,469.9,50.982,470.21Z"/><path class="k" d="M1211.941,582.021c-32.083-12.524-69.778-18.95-106.624-18.342a302.542,302.542,0,0,0-60.9,7.08c-16.612,3.716-32.68,8.432-49.109,12.5-15.454,3.821-31.385,7.148-47.8,8.107-18.551,1.08-36.573-1-54.737-3.417-39.828-5.3-79.561-12.881-120.416-12.808-38.392.074-75.83,6.96-111.523,16.309C591.1,609.707,524.6,638.021,449.777,645.405,371.625,653.119,296.9,636.2,223.39,620c-40.407-8.9-80.738-17.451-123.15-20.249-36.356-2.4-72.814-1.625-109.092.839V772.645H1260.41V601.516C1243.876,595.51,1228.118,588.336,1211.941,582.021Z"/><path class="k" d="M70.335,614.486a468.842,468.842,0,0,1,63.4,10.9c20.708,5.058,41.049,11.561,61.87,16.183,25.377,5.634,51.713,7.987,77.6,5.639C231.6,645.83,191.252,632.7,151.419,620c-27.942-8.9-55.83-17.451-85.158-20.249-25.141-2.4-50.354-1.625-75.44.839v16.712C17,612.238,43.813,611.777,70.335,614.486Z"/><path class="k" d="M712.043,583.054c16.555-1.714,33.272-3.732,49.974-4.575a364.98,364.98,0,0,1,51.472,1.242c22.063,2.012,43.758,5.45,65.354,9.108,22.252,3.768,44.472,8.337,67.477,9.139a235.418,235.418,0,0,0,34.74-1.022,309.766,309.766,0,0,0,30.7-5.256c20.134-4.387,39.849-9.92,60.554-12.97a219.764,219.764,0,0,1,61.885.078,314.355,314.355,0,0,1,31.249,5.954c10.4,2.526,20.428,5.623,30.678,8.406,20.59,5.591,42.134,10.14,64.28,11.413v-3.055c-16.534-6.006-32.292-13.18-48.469-19.5-32.083-12.524-69.778-18.95-106.624-18.342a302.542,302.542,0,0,0-60.9,7.08c-16.612,3.716-32.68,8.432-49.109,12.5-15.454,3.821-31.385,7.148-47.8,8.107-18.551,1.08-36.573-1-54.737-3.417-39.828-5.3-79.561-12.881-120.416-12.808-31.171.064-61.707,4.612-91.206,11.325C691.4,585.092,701.814,584.107,712.043,583.054Z"/><path class="l" d="M1170.609,594.169c-20.129-2.841-40.923-5.23-61.471-4.575-20.643.66-40.714,4.224-60.523,8.468-35.5,7.61-71,16.519-108.227,17.336a288.794,288.794,0,0,1-61.089-5.073c-23.4-4.528-46.451-8.961-70.547-10.958-44.985-3.721-90.436-1.7-134.838,4.7-44.068,6.346-87.04,16.345-129.127,28-21.627,5.99-42.92,12.682-65.04,17.614a605.308,605.308,0,0,1-65.964,11.026c-88.178,9.626-176.349.288-262.5-14.627-42.721-7.394-86.371-13.206-130.347-12.923q-14.982.095-29.785,1.148V772.645H1260.41V607.2C1230.156,604.194,1200.653,598.419,1170.609,594.169Z"/><path class="m" d="M1170.609,594.169c-20.129-2.841-40.923-5.23-61.471-4.575-20.643.66-40.714,4.224-60.523,8.468-35.5,7.61-71,16.519-108.227,17.336a288.794,288.794,0,0,1-61.089-5.073c-23.4-4.528-46.451-8.961-70.547-10.958-44.985-3.721-90.436-1.7-134.838,4.7-44.068,6.346-87.04,16.345-129.127,28-21.627,5.99-42.92,12.682-65.04,17.614a605.308,605.308,0,0,1-65.964,11.026c-88.178,9.626-176.349.288-262.5-14.627-42.721-7.394-86.371-13.206-130.347-12.923q-14.982.095-29.785,1.148v61.78A277.751,277.751,0,0,1,67.015,683.9c31.748-.7,63.214,3.181,93.955,8.337C194.8,697.91,228.1,705,262.133,710.1c37.878,5.681,76.254,10.382,115.047,11.545,18.552.555,37.433.666,55.843-1.211A287.293,287.293,0,0,0,479.3,711.8c30.63-8.337,58.61-20.553,87.118-31.783a.559.559,0,0,1,.508.042q8.624-3.617,17.268-7.211c34.357-16.309,69.913-32.329,110.029-40.766a296.279,296.279,0,0,1,69.506-6.262c25.636.754,50.79,4.417,75.358,9.391,24.8,5.015,49.082,11.167,73.791,16.407,25.056,5.314,51.74,10.659,78.137,10.728,27.019.073,52.5-5.817,76.343-14.244,23.121-8.175,48.7-13.552,74.8-13.814,26.753-.262,52.117,4.575,76.391,12.08,14.034,4.344,27.748,8.94,41.856,12.886V607.2C1230.156,604.194,1200.653,598.419,1170.609,594.169Z"/><path class="n" d="M93.2,673.447c38.925,2.164,76.882,8.878,114.456,15.931,40.291,7.562,80.762,15.339,121.947,20.26,44.968,5.372,91.926,6.592,135.729-3.6,37.889-8.815,71.076-24.295,103.385-40.21,31.563-15.544,63.577-31.024,99.768-41.044,37.087-10.271,75.836-14.585,115.433-9.706,41.966,5.178,82.014,16.461,122.513,25.354,22.392,4.916,45.419,9.234,68.928,10.523a221.513,221.513,0,0,0,65.286-5.644c34.451-8.353,68.054-22.157,105.518-22.335,29.126-.142,57.687,5.722,85.425,11.246,9.538,1.9,19.149,3.883,28.823,5.738V607.2c-30.254-3-59.757-8.778-89.8-13.028-20.129-2.841-40.923-5.23-61.471-4.575-20.643.66-40.714,4.224-60.523,8.468-35.5,7.61-71,16.519-108.227,17.336a288.794,288.794,0,0,1-61.089-5.073c-23.4-4.528-46.451-8.961-70.547-10.958-44.985-3.721-90.436-1.7-134.838,4.7-44.068,6.346-87.04,16.345-129.127,28-21.627,5.99-42.92,12.682-65.04,17.614a605.308,605.308,0,0,1-65.964,11.026c-88.178,9.626-176.349.288-262.5-14.627-42.721-7.394-86.371-13.206-130.347-12.923q-14.982.095-29.785,1.148v49.758C23.048,674.244,58.256,671.5,93.2,673.447Z"/><g class="o"><path class="p" d="M192.861,498.739a49.7,49.7,0,0,0-10.227-.2c-3.139.194-7.6.4-10.256,1.818-1.417.75-.676,1.693.577,2.2a17.6,17.6,0,0,0,4.219.613,65.679,65.679,0,0,0,6.673.362,66.473,66.473,0,0,0,10.465-.671c1.6-.252,4.78-.681,5.749-1.84C201.39,499.431,196.875,498.886,192.861,498.739Z"/><path class="q" d="M184.154,496.847c-4.845.32-11.791.55-15.653,3.087-3.939,2.583,2.528,4.171,5.34,4.685.12.021.343-.21.2-.241a20.505,20.505,0,0,1-5.29-1.583c-3.5-1.777,2.623-3.485,4.282-3.92a73.765,73.765,0,0,1,11.026-1.865C184.135,497,184.274,496.842,184.154,496.847Z"/><path class="q" d="M198.911,497.869c-2.979-.665-5.935-.582-8.974-.817-.087-.006-.238.157-.142.167,2.953.362,5.791.551,8.71,1.138,1.467.293,6.338,1.593,3.162,3.506a20.2,20.2,0,0,1-6.317,1.975c-.123.026-.369.31-.165.283,2.709-.356,8.118-1.446,8.33-3.956C203.622,498.875,200.156,498.152,198.911,497.869Z"/><path class="q" d="M191.65,504.834c-3.021.157-5.984.246-9.011.142a40.527,40.527,0,0,1-6.778-.409c-.076-.016-.231.141-.158.167,2.013.645,4.455.524,6.619.619a51.033,51.033,0,0,0,9.171-.257C191.611,505.08,191.852,504.823,191.65,504.834Z"/><path class="q" d="M169.066,497.827c-2.135.619-4.6,1.588-5.387,3.3-1.213,2.62,1.832,3.437,4.573,4.375.068.027.212-.1.149-.136-1.564-.828-3.006-1.31-4.057-2.568-1.781-2.138,2.527-4.051,4.662-4.8C169.087,497.974,169.234,497.775,169.066,497.827Z"/><path class="q" d="M180.763,507.009c-3.076-.184-6.055-.462-9.079-.923-.021,0-.057.037-.034.037a68.13,68.13,0,0,0,8.977,1.048C180.713,507.176,180.85,507.014,180.763,507.009Z"/><path class="q" d="M204.217,498.3c-.065-.015-.209.12-.141.147a4.922,4.922,0,0,1,2.313,1.714c1.339,1.661-1.428,3.358-3.092,4.04a41.533,41.533,0,0,1-6.757,1.74c-.087.021-.293.236-.129.215,3.229-.315,7.217-1.08,9.378-3C207.88,501.312,207.566,499.2,204.217,498.3Z"/></g><path class="r" d="M179.076,471.575v28.736a1.155,1.155,0,0,0,.034.54c2.015,1.074,4.942,1.258,7.318,1.2a23.793,23.793,0,0,0,6.116-.823,1.822,1.822,0,0,0,.251-.948l-.141-28.7Z"/><path class="s" d="M185.655,502.371a14.579,14.579,0,0,1-6.692-1.242.318.318,0,0,1-.152-.194,1.5,1.5,0,0,1-.047-.65v-28.71a.311.311,0,0,1,.312-.312h13.58a.313.313,0,0,1,.312.309l.139,28.708a2.154,2.154,0,0,1-.293,1.106.328.328,0,0,1-.178.141,23.544,23.544,0,0,1-6.2.833C186.169,502.371,185.909,502.371,185.655,502.371Zm-6.273-1.73a15.169,15.169,0,0,0,7.038,1.095,23.261,23.261,0,0,0,5.912-.77,1.534,1.534,0,0,0,.152-.686l-.139-28.393H179.388v28.424a.336.336,0,0,1-.008.074h0A.809.809,0,0,0,179.382,500.641Zm-.306-.33h0Z"/><path class="t" d="M191.946,491.675c-.159,1.179-.246,2.368-.406,3.548a3.871,3.871,0,0,1-.849,2.348.156.156,0,0,1-.246-.032c-1.224-2.9-1.064-6.074-1.268-9.166a45.951,45.951,0,0,0-.142,5.545c.087,2.1.388,4.26-.175,6.315a.158.158,0,0,1-.286.036,7.217,7.217,0,0,1-.883-2.793,7.4,7.4,0,0,1-.325,3.123,1.369,1.369,0,0,1-1.449.834,8.174,8.174,0,0,1-2.7-.44c-1.548-.629-2.077-2.118-2.258-3.779-.035.786-.071,1.567-.121,2.353a.157.157,0,0,1-.291.079c-.9-1.567-.9-3.375-1.187-5.105l-.28-1.692v7.462a1.155,1.155,0,0,0,.034.54c2.015,1.074,4.942,1.258,7.318,1.2a23.793,23.793,0,0,0,6.116-.823,1.822,1.822,0,0,0,.251-.948l-.068-14.05Q192.319,488.95,191.946,491.675Z"/><path class="u" d="M179.076,471.575v7.932a11.332,11.332,0,0,1,.82-1.887c.3-.556.849-2.01,1.96-2.01.744,0,1.035.812,1.156,1.216.969,3.173.107,6.553.5,9.781a11.591,11.591,0,0,0,.54,2.657c.071.189.564,1.588,1.2.755.281-.367,1.305-4.211,2.107-5.657a.337.337,0,0,1,.519-.05c.851.907.8,14.7.953,17.6a18.955,18.955,0,0,0,3.708-.682,1.822,1.822,0,0,0,.251-.948l-.141-28.7Z"/><path class="t" d="M179.076,471.575v3.807a4.817,4.817,0,0,1,.529-1.268,1.831,1.831,0,0,1,2.1-.949c.762.216,1.066.967,1.307,1.47.131.275.375,1.114.867,1.169.747.086,1.318-.813,1.677-1.148.6-.558,1.884-1.171,2.636-.34.933,1.03.742,2.743.705,3.909a39.806,39.806,0,0,0-.063,4.992c.44-2.371.241-4.814,1.465-7.083.1-.181.467-.212.55,0a9.43,9.43,0,0,1,.362,3.241c.036,1.24.1,2.477.163,3.716.13,2.623.29,5.241.421,7.866s.273,5.235.411,7.855c.045.828.061,1.651.129,2.469.068-.016.139-.032.207-.053a1.822,1.822,0,0,0,.251-.948l-.141-28.7Z"/><path class="u" d="M181.138,479.758c-.029-.1-.268.118-.275.17a84.958,84.958,0,0,0,.117,16.9c.017.2.417-.11.425-.22.233-3.229.333-6.5.322-9.729A24.987,24.987,0,0,0,181.138,479.758Z"/><path class="u" d="M183.546,491.167c-.026-.158-.325.078-.341.151a14.388,14.388,0,0,0,.538,8.789c.089.215.6-.241.6-.367A51.478,51.478,0,0,0,183.546,491.167Z"/><path class="u" d="M187.308,487.658c0-.131-.267.068-.285.128a15.108,15.108,0,0,0-.584,2.967,19.511,19.511,0,0,0,.419,3.731c.021.2.411-.121.422-.225.152-1.243.139-2.5.317-3.732C187.741,489.537,187.283,488.641,187.308,487.658Z"/><ellipse class="r" cx="185.86" cy="471.486" rx="6.8" ry="1.158"/><path class="s" d="M185.86,472.956c-.729,0-7.112-.042-7.112-1.47s6.383-1.47,7.112-1.47,7.111.039,7.111,1.47S186.588,472.956,185.86,472.956Zm-6.462-1.47c.341.309,2.484.846,6.462.846s6.12-.537,6.461-.846c-.341-.309-2.484-.847-6.461-.847S179.739,471.177,179.4,471.486Zm12.96.039h0Z"/><path class="v" d="M185.868,472.272c-.619,0-6.038-.024-6.038-.87s5.419-.873,6.038-.873,6.037.024,6.037.873S186.486,472.272,185.868,472.272Zm-5.7-.87c.3.238,2.405.558,5.7.558s5.4-.32,5.7-.558c-.3-.238-2.406-.561-5.7-.561S180.465,471.164,180.163,471.4Zm11.437.026h0Z"/><path class="v" d="M185.951,471.9c-1.485,0-4.936-.061-4.936-.619s3.451-.618,4.936-.618,4.934.06,4.934.618S187.435,471.9,185.951,471.9Zm-4.493-.619a33.017,33.017,0,0,0,8.984,0,33.124,33.124,0,0,0-8.984,0Zm9.139.066h0Z"/><path class="v" d="M185.993,471.811c-1.14,0-3.052-.068-3.052-.53s1.912-.529,3.052-.529,3.053.068,3.053.529S187.133,471.811,185.993,471.811Zm-2.62-.53a15.853,15.853,0,0,0,5.24,0,15.925,15.925,0,0,0-5.24,0Zm5.385.064h0Z"/><path class="w" d="M190.676,477.743c-.016-.126-.186.076-.192.139-.159,1.664-.246,3.315-.262,4.983-.013,1.6.291,3.226.349,4.835,0,.107.173-.06.176-.128A66.9,66.9,0,0,0,190.676,477.743Z"/><path class="w" d="M191.077,493.839a10.59,10.59,0,0,0-.514-4.077c-.026-.058-.131.063-.126.105.469,3.249-.188,6.613.522,9.862.037.163.335-.188.338-.288C191.333,497.575,191.087,495.71,191.077,493.839Z"/><path class="w" d="M186.622,478.644a9.151,9.151,0,0,0-.327-2.782c-.035-.082-.176.1-.163.157a20.659,20.659,0,0,1-.042,3.013c.037,1.075.16,2.144.262,3.215.011.123.184-.073.192-.139A24.718,24.718,0,0,0,186.622,478.644Z"/><path class="w" d="M185.432,481.168c-.018-.073-.157.084-.157.133.021.7-.021,1.41-.068,2.112a4.528,4.528,0,0,0,.126,2.057c.078.181.338-.186.356-.262A8.131,8.131,0,0,0,185.432,481.168Z"/><path class="w" d="M187.943,477.177c-.021-.092-.178.095-.184.134a8.237,8.237,0,0,0-.115.851,3.282,3.282,0,0,1-.031.561c-.06.247.228.076.3-.016C188.236,478.264,188.055,477.675,187.943,477.177Z"/><g class="o"><path class="p" d="M128.788,507.774a61.819,61.819,0,0,0-12.682-.247c-3.894.242-9.423.5-12.719,2.254-1.758.933-.841,2.1.713,2.725a21.894,21.894,0,0,0,5.233.76,80.956,80.956,0,0,0,8.277.451,82.436,82.436,0,0,0,12.978-.834c1.978-.314,5.93-.843,7.13-2.279C139.369,508.639,133.766,507.962,128.788,507.774Z"/><path class="q" d="M117.99,505.431c-6.009.394-14.626.682-19.414,3.826-4.884,3.2,3.134,5.172,6.622,5.811.149.027.424-.261.251-.3a25.78,25.78,0,0,1-6.561-1.96c-4.344-2.206,3.252-4.329,5.309-4.863a91.464,91.464,0,0,1,13.675-2.317C117.966,505.62,118.139,505.421,117.99,505.431Z"/><path class="q" d="M136.292,506.7c-3.692-.828-7.36-.723-11.13-1.016-.108-.011-.3.194-.176.209,3.663.451,7.182.682,10.8,1.405,1.819.367,7.861,1.981,3.923,4.349a24.979,24.979,0,0,1-7.835,2.458c-.152.026-.458.377-.207.346,3.362-.44,10.07-1.787,10.332-4.91C142.138,507.942,137.838,507.045,136.292,506.7Z"/><path class="q" d="M127.287,515.336c-3.745.193-7.421.3-11.173.173-2.738-.094-5.77.063-8.408-.5-.095-.021-.286.172-.2.2,2.5.8,5.526.65,8.209.77a63.874,63.874,0,0,0,11.375-.319C127.239,515.64,127.536,515.32,127.287,515.336Z"/><path class="q" d="M99.276,506.642c-2.646.77-5.7,1.97-6.679,4.087-1.5,3.25,2.272,4.266,5.668,5.429.089.032.267-.125.188-.167-1.942-1.027-3.731-1.624-5.031-3.187-2.209-2.651,3.131-5.02,5.781-5.942C99.3,506.825,99.485,506.584,99.276,506.642Z"/><path class="q" d="M113.784,518.034c-3.815-.23-7.509-.576-11.259-1.147-.026,0-.073.042-.045.047a85.517,85.517,0,0,0,11.137,1.3C113.722,518.234,113.892,518.04,113.784,518.034Z"/><path class="q" d="M142.875,507.234c-.082-.021-.26.152-.176.183a6.1,6.1,0,0,1,2.866,2.128c1.664,2.054-1.769,4.166-3.833,5.01a52.308,52.308,0,0,1-8.379,2.159c-.108.021-.365.288-.16.268,4-.394,8.95-1.337,11.631-3.716C147.415,510.965,147.027,508.345,142.875,507.234Z"/></g><path class="r" d="M111.691,474.085v35.643a1.461,1.461,0,0,0,.041.666c2.5,1.331,6.132,1.561,9.077,1.489a29.415,29.415,0,0,0,7.588-1.023,2.3,2.3,0,0,0,.31-1.173l-.173-35.6Z"/><path class="s" d="M119.845,512.207c-3.566,0-6.339-.519-8.256-1.535a.321.321,0,0,1-.155-.189,1.842,1.842,0,0,1-.055-.786V474.085a.311.311,0,0,1,.312-.312h16.843a.312.312,0,0,1,.311.309l.173,35.6a2.568,2.568,0,0,1-.353,1.336.3.3,0,0,1-.179.142,29.185,29.185,0,0,1-7.669,1.038C120.487,512.2,120.162,512.207,119.845,512.207Zm-7.84-2.022c1.991,1.016,4.95,1.477,8.8,1.383a28.71,28.71,0,0,0,7.384-.97,1.955,1.955,0,0,0,.21-.911l-.173-35.29H112v35.331a.364.364,0,0,1-.007.074h0A1.09,1.09,0,0,0,112.005,510.185Zm-.314-.457h0Z"/><path class="t" d="M127.656,499.011c-.2,1.468-.307,2.941-.506,4.4a4.8,4.8,0,0,1-1.053,2.914.2.2,0,0,1-.3-.036c-1.52-3.6-1.32-7.536-1.575-11.372a57.192,57.192,0,0,0-.173,6.881c.105,2.6.48,5.277-.22,7.829a.2.2,0,0,1-.354.047,8.976,8.976,0,0,1-1.095-3.469,9.119,9.119,0,0,1-.4,3.872,1.693,1.693,0,0,1-1.8,1.038,9.985,9.985,0,0,1-3.354-.55c-1.921-.776-2.579-2.62-2.8-4.68-.042.969-.089,1.945-.152,2.914a.194.194,0,0,1-.359.1c-1.114-1.944-1.114-4.187-1.473-6.33l-.348-2.1v9.26a1.461,1.461,0,0,0,.041.666c2.5,1.331,6.132,1.561,9.077,1.489a29.415,29.415,0,0,0,7.588-1.023,2.3,2.3,0,0,0,.31-1.173l-.084-17.425C128.285,494.51,127.968,496.764,127.656,499.011Z"/><path class="u" d="M111.691,474.085v9.837a14.343,14.343,0,0,1,1.016-2.34c.38-.687,1.054-2.492,2.432-2.492.925,0,1.284,1.009,1.436,1.507,1.2,3.938.131,8.127.623,12.131a14.125,14.125,0,0,0,.669,3.3c.086.23.7,1.97,1.493.932.346-.456,1.617-5.219,2.613-7.011a.416.416,0,0,1,.642-.063c1.056,1.121,1,18.226,1.181,21.826a23.775,23.775,0,0,0,4.6-.849,2.3,2.3,0,0,0,.31-1.173l-.173-35.6Z"/><path class="t" d="M111.691,474.085V478.8a6.158,6.158,0,0,1,.655-1.569,2.273,2.273,0,0,1,2.607-1.177c.946.265,1.323,1.2,1.625,1.824.162.341.461,1.381,1.074,1.449.927.1,1.635-1.009,2.08-1.423.742-.692,2.335-1.454,3.268-.422,1.158,1.276.919,3.4.877,4.845a49.087,49.087,0,0,0-.081,6.194c.548-2.942.3-5.971,1.819-8.785.123-.226.579-.262.681,0a11.681,11.681,0,0,1,.448,4.019c.047,1.536.123,3.074.2,4.609.162,3.249.361,6.5.524,9.753s.338,6.5.511,9.747c.055,1.022.073,2.044.157,3.06.084-.021.173-.041.259-.068a2.3,2.3,0,0,0,.31-1.173l-.173-35.6Z"/><path class="u" d="M114.251,484.236c-.039-.126-.336.144-.344.21a105.663,105.663,0,0,0,.147,20.964c.019.241.517-.136.527-.278.288-4,.414-8.054.4-12.063C114.971,490.092,115.1,487.157,114.251,484.236Z"/><path class="u" d="M117.238,498.383c-.037-.194-.4.1-.425.194a17.826,17.826,0,0,0,.666,10.894c.112.268.741-.3.741-.455A64,64,0,0,0,117.238,498.383Z"/><path class="u" d="M121.9,494.033c0-.162-.331.084-.351.157a18.869,18.869,0,0,0-.729,3.679,23.972,23.972,0,0,0,.522,4.627c.026.252.508-.152.524-.277.189-1.541.17-3.1.393-4.627C122.439,496.365,121.87,495.249,121.9,494.033Z"/><path class="r" d="M128.539,473.972c0,.8-3.776,1.439-8.435,1.439s-8.432-.644-8.432-1.439,3.776-1.436,8.432-1.436S128.539,473.179,128.539,473.972Z"/><path class="s" d="M120.1,475.723c-.356,0-8.743-.021-8.743-1.751s8.387-1.747,8.743-1.747,8.747.021,8.747,1.747S120.463,475.723,120.1,475.723Zm0-2.875c-5.091,0-7.952.732-8.123,1.143.171.374,3.032,1.108,8.123,1.108,5.023,0,7.877-.712,8.118-1.127C127.981,473.561,125.13,472.848,120.1,472.848Zm8.126,1.143h0Z"/><path class="v" d="M120.115,474.913c-.3,0-7.449-.011-7.449-1.043s7.145-1.045,7.449-1.045,7.452.013,7.452,1.045S120.419,474.913,120.115,474.913Zm0-1.777c-4.347,0-6.98.444-7.14.747.157.276,2.793.718,7.14.718,4.276,0,6.9-.427,7.132-.731C127.011,473.564,124.391,473.136,120.115,473.136Zm7.143.747h0Z"/><path class="v" d="M120.217,474.452c-1.425,0-6.082-.052-6.082-.731s4.657-.728,6.082-.728,6.084.052,6.084.728S121.645,474.452,120.217,474.452Zm-5.691-.731a24.77,24.77,0,0,0,5.691.419,24.749,24.749,0,0,0,5.691-.419,24.934,24.934,0,0,0-5.691-.417A24.955,24.955,0,0,0,114.526,473.721Zm11.482.055h0Z"/><path class="v" d="M120.272,474.339c-.88,0-3.75-.044-3.75-.618s2.87-.618,3.75-.618,3.75.044,3.75.618S121.15,474.339,120.272,474.339Zm-3.367-.618a18.6,18.6,0,0,0,6.731,0,18.6,18.6,0,0,0-6.731,0Zm6.82.052h0Z"/><path class="w" d="M126.079,481.734c-.019-.155-.231.094-.239.172-.2,2.065-.3,4.112-.322,6.185-.018,1.986.359,4,.43,6,.005.131.214-.079.217-.157A82.734,82.734,0,0,0,126.079,481.734Z"/><path class="w" d="M126.577,501.7a13.178,13.178,0,0,0-.637-5.057c-.034-.074-.163.079-.155.126.582,4.029-.236,8.2.645,12.231.044.2.417-.225.419-.351C126.9,506.333,126.587,504.016,126.577,501.7Z"/><path class="w" d="M121.053,482.853a11.469,11.469,0,0,0-.409-3.452c-.042-.1-.217.119-.2.2a25.484,25.484,0,0,1-.049,3.734c.044,1.336.2,2.66.322,3.991.016.152.23-.092.238-.173A30.984,30.984,0,0,0,121.053,482.853Z"/><path class="w" d="M119.575,485.984c-.021-.092-.2.1-.194.165.026.87-.028,1.747-.084,2.617a5.629,5.629,0,0,0,.155,2.552c.1.226.419-.23.443-.324A10.114,10.114,0,0,0,119.575,485.984Z"/><path class="w" d="M122.69,481.034c-.025-.113-.22.118-.23.165a10.252,10.252,0,0,0-.142,1.056,4.029,4.029,0,0,1-.039.695c-.073.306.283.094.367-.019C123.055,482.381,122.829,481.65,122.69,481.034Z"/><path class="k" d="M93.011,673.578c38.924,2.164,76.881,8.878,114.453,15.931,40.294,7.562,80.764,15.339,121.946,20.26,44.969,5.372,91.929,6.593,135.737-3.6,37.884-8.814,71.072-24.295,103.374-40.21,31.564-15.544,63.579-31.024,99.775-41.044,37.087-10.271,75.835-14.584,115.432-9.706,41.971,5.178,82.014,16.461,122.513,25.354,22.393,4.916,45.419,9.234,68.928,10.523a221.489,221.489,0,0,0,65.287-5.644c34.451-8.353,68.053-22.157,105.517-22.335,29.132-.141,57.687,5.722,85.431,11.246,9.527,1.9,19.138,3.883,28.818,5.739V607.328c-30.254-3-59.758-8.778-89.807-13.028-20.129-2.84-40.923-5.231-61.466-4.575-20.643.66-40.714,4.224-60.523,8.468-35.5,7.61-71,16.519-108.227,17.336a288.767,288.767,0,0,1-61.089-5.073c-23.4-4.527-46.456-8.961-70.542-10.958-44.995-3.721-90.435-1.7-134.849,4.7-44.062,6.346-87.039,16.345-129.115,28-21.633,5.99-42.93,12.682-65.045,17.614a605.42,605.42,0,0,1-65.968,11.026c-88.177,9.626-176.348.288-262.5-14.627-42.726-7.394-86.374-13.206-130.35-12.923q-14.982.094-29.787,1.148V684.2C22.859,674.375,58.07,671.634,93.011,673.578Z"/><path class="x" d="M734.431,611.641c-41.851-1.971-81.38,13.242-115.716,28.036-35.866,15.455-70.721,32.251-107.671,46.478-18.52,7.128-37.795,13.5-58.123,17.776a307.72,307.72,0,0,1-65.307,6.357c-47.083-.346-92.854-9.354-137.377-19.191-22.775-5.031-45.425-10.345-68.355-15.045-22.8-4.67-46.022-9.056-69.7-10.911a319.605,319.605,0,0,0-68.234,1.667,338.724,338.724,0,0,0-53.5,12v5.031c31.9-9.815,67.107-12.556,102.054-10.612,38.924,2.164,76.88,8.872,114.45,15.926,40.3,7.567,80.764,15.344,121.952,20.265,44.961,5.372,91.924,6.592,135.734-3.606,37.878-8.814,71.072-24.294,103.38-40.205,31.558-15.543,63.572-31.023,99.763-41.043a310.222,310.222,0,0,1,79.142-11.692A122.29,122.29,0,0,0,734.431,611.641Z"/><path class="x" d="M1247.01,624.129a414.181,414.181,0,0,0-63.724-7.662,392.553,392.553,0,0,0-48.025.692c-16.68,1.242-33.4,2.982-49.811,5.429-31.532,4.7-62.487,11.686-94.648,14.15a289.572,289.572,0,0,1-48.941-.457c-17.315-1.614-33.807-4.312-49.549-7.106-15.874-2.819-31.9-5.528-48.182-6.88-8.489-.7-17.021-1.08-25.542-1.651,29.641,5.712,58.621,13.368,87.842,19.788,22.392,4.916,45.419,9.234,68.928,10.523a221.513,221.513,0,0,0,65.286-5.644c34.451-8.353,68.054-22.157,105.518-22.335,29.126-.142,57.687,5.722,85.425,11.246,9.538,1.9,19.149,3.883,28.823,5.738V627.241C1255.9,626.052,1251.37,625.03,1247.01,624.129Z"/><path class="u" d="M139.035,503.015c0,.262-.877.472-1.959.472s-1.963-.21-1.963-.472.878-.466,1.963-.466S139.035,502.759,139.035,503.015Z"/><g class="y"><path class="z" d="M472.7,745.991a6.559,6.559,0,0,0-2.484,1.468,4.712,4.712,0,0,0-.409.362,3.3,3.3,0,0,0-1.431,2.143c-.157,2.023,4,.786,4.79.073a3.364,3.364,0,0,0,1.127-2.62A1.4,1.4,0,0,0,472.7,745.991Z"/><path class="z" d="M480.2,750.6a.824.824,0,0,0-.251-.629c-.75-.744-2,.225-.949,1.127A.679.679,0,0,0,480.2,750.6Z"/><path class="z" d="M487.021,744.283a1.447,1.447,0,0,0-1.41-1.834,1.6,1.6,0,0,0-.565.084c-1.006-.488-2.1.477-2.679,1.368-.654,1.021-.718,2.546.6,3.028a2.623,2.623,0,0,0,2.327-.366c.058-.016.126-.026.178-.042a2.27,2.27,0,0,0,1.567-1.326A1.094,1.094,0,0,0,487.021,744.283Z"/><path class="z" d="M494,749.262c-.11-.776-.943-.907-1.614-.813a1.194,1.194,0,0,0-.906-.2,2.221,2.221,0,0,0-1.588,1.546c-.388,1.572,1.682,2.133,2.8,1.572A2.234,2.234,0,0,0,494,749.262Z"/></g><g class="y"><path class="z" d="M253.6,754.869a3.6,3.6,0,0,0-1.384.818c-.07.057-.151.125-.228.2a1.865,1.865,0,0,0-.8,1.2c-.086,1.126,2.233.44,2.673.041a1.876,1.876,0,0,0,.629-1.461A.779.779,0,0,0,253.6,754.869Z"/><path class="z" d="M257.785,757.437a.48.48,0,0,0-.141-.351c-.419-.414-1.119.126-.529.629A.379.379,0,0,0,257.785,757.437Z"/><path class="z" d="M261.593,753.91a.81.81,0,0,0-.786-1.022,1.076,1.076,0,0,0-.317.047c-.563-.272-1.171.268-1.494.766-.366.57-.4,1.419.338,1.692a1.456,1.456,0,0,0,1.3-.21.594.594,0,0,0,.1-.021,1.264,1.264,0,0,0,.872-.739A.607.607,0,0,0,261.593,753.91Z"/><path class="z" d="M265.484,756.693c-.06-.435-.524-.5-.9-.451a.67.67,0,0,0-.509-.115,1.242,1.242,0,0,0-.888.864c-.215.875.938,1.19,1.567.875A1.231,1.231,0,0,0,265.484,756.693Z"/></g><g class="y"><path class="z" d="M508.863,638.64a3.56,3.56,0,0,0-1.388.823,2.427,2.427,0,0,0-.231.2,1.862,1.862,0,0,0-.8,1.2c-.089,1.127,2.237.435,2.683.036a1.858,1.858,0,0,0,.628-1.467A.779.779,0,0,0,508.863,638.64Z"/><path class="z" d="M513.066,641.218a.5.5,0,0,0-.141-.351c-.424-.414-1.121.126-.534.629A.381.381,0,0,0,513.066,641.218Z"/><path class="z" d="M516.887,637.68a.816.816,0,0,0-.791-1.027,1.1,1.1,0,0,0-.32.048c-.561-.273-1.174.267-1.5.765-.367.576-.4,1.425.341,1.7a1.457,1.457,0,0,0,1.3-.205c.032-.01.074-.015.105-.026a1.242,1.242,0,0,0,.875-.739A.62.62,0,0,0,516.887,637.68Z"/><path class="z" d="M520.791,640.474c-.063-.44-.529-.509-.9-.456a.667.667,0,0,0-.509-.115,1.242,1.242,0,0,0-.89.87c-.216.88.943,1.189,1.571.88A1.255,1.255,0,0,0,520.791,640.474Z"/></g><g class="y"><path class="z" d="M360.625,743.35a4.861,4.861,0,0,0-1.857,1.1,3.193,3.193,0,0,0-.307.272,2.467,2.467,0,0,0-1.074,1.609c-.116,1.509,3,.587,3.587.052a2.529,2.529,0,0,0,.846-1.959A1.046,1.046,0,0,0,360.625,743.35Z"/><path class="z" d="M366.243,746.8a.629.629,0,0,0-.189-.471c-.563-.556-1.5.168-.71.844A.508.508,0,0,0,366.243,746.8Z"/><path class="z" d="M371.353,742.066A1.084,1.084,0,0,0,370.3,740.7a1.256,1.256,0,0,0-.427.058c-.753-.362-1.57.356-2,1.027-.49.764-.537,1.907.453,2.268a1.952,1.952,0,0,0,1.74-.277,1.126,1.126,0,0,0,.136-.032,1.685,1.685,0,0,0,1.172-.99A.831.831,0,0,0,371.353,742.066Z"/><path class="z" d="M376.572,745.8c-.081-.582-.7-.677-1.2-.608a.892.892,0,0,0-.682-.147A1.654,1.654,0,0,0,373.5,746.2c-.288,1.174,1.258,1.593,2.1,1.174A1.665,1.665,0,0,0,376.572,745.8Z"/></g><g class="y"><path class="z" d="M72.114,747.48a4.841,4.841,0,0,0-1.855,1.1,2.89,2.89,0,0,0-.306.273,2.488,2.488,0,0,0-1.075,1.609c-.118,1.509,3,.586,3.588.052a2.513,2.513,0,0,0,.843-1.96A1.044,1.044,0,0,0,72.114,747.48Z"/><path class="z" d="M77.732,750.928a.624.624,0,0,0-.188-.467c-.564-.56-1.5.163-.711.839A.508.508,0,0,0,77.732,750.928Z"/><path class="z" d="M82.842,746.2a1.086,1.086,0,0,0-1.056-1.373,1.19,1.19,0,0,0-.427.063c-.752-.367-1.57.357-2,1.022-.493.765-.54,1.908.453,2.269a1.946,1.946,0,0,0,1.737-.278c.045-.01.095-.015.136-.026a1.7,1.7,0,0,0,1.175-1A.821.821,0,0,0,82.842,746.2Z"/><path class="z" d="M88.064,749.927c-.084-.582-.7-.676-1.208-.608a.887.887,0,0,0-.679-.147,1.666,1.666,0,0,0-1.192,1.158c-.285,1.175,1.26,1.594,2.1,1.175A1.664,1.664,0,0,0,88.064,749.927Z"/></g><g class="y"><path class="z" d="M127.643,728.672a4.868,4.868,0,0,0-1.858,1.1,3.189,3.189,0,0,0-.306.273,2.494,2.494,0,0,0-1.075,1.608c-.115,1.509,3,.587,3.587.053a2.52,2.52,0,0,0,.846-1.96A1.045,1.045,0,0,0,127.643,728.672Z"/><path class="z" d="M133.261,732.12a.617.617,0,0,0-.189-.466c-.564-.561-1.5.162-.71.838A.508.508,0,0,0,133.261,732.12Z"/><path class="z" d="M138.37,727.388a1.083,1.083,0,0,0-1.056-1.368,1.19,1.19,0,0,0-.427.063c-.752-.367-1.569.356-2,1.022-.49.765-.538,1.907.453,2.269a1.952,1.952,0,0,0,1.74-.278,1.034,1.034,0,0,0,.136-.032,1.681,1.681,0,0,0,1.171-.99A.825.825,0,0,0,138.37,727.388Z"/><path class="z" d="M143.59,731.119c-.082-.581-.705-.676-1.205-.608a.892.892,0,0,0-.682-.147,1.662,1.662,0,0,0-1.19,1.158c-.288,1.174,1.258,1.593,2.1,1.174A1.666,1.666,0,0,0,143.59,731.119Z"/></g><path class="aa" d="M326.806,676.193c16.749-5.052,31.351-16.214,46.3-24.961q6.91-4.047,13.872-8.007c4.609-2.631,9.221-5.293,13.979-7.63-2.086.576-4.169,1.174-6.189,1.95a76.542,76.542,0,0,0-8.086,3.689c-7.227,3.778-14.011,8.463-21.015,12.593a305.374,305.374,0,0,1-37.162,18.378,155.928,155.928,0,0,1-19.435,6.713c-3.349.912-6.794,1.421-10.159,2.253-.134.032-.264.069-.4.1,2.992-.157,5.979-.487,8.922-.917A133.388,133.388,0,0,0,326.806,676.193Z"/><path class="ab" d="M184.872,664.533c5.667.031,11.3-.068,16.924-.361q-2.582-.308-5.157-.677c-15.252-2.19-30.394-5.057-45.477-8.212s-30.141-6.556-45.228-9.747c-7.329-1.551-14.686-3-22.07-4.26-3.823-.661-7.683-1-11.537-1.358,3.469.739,6.946,1.436,10.394,2.28,3.339.818,6.506,2.275,9.834,3.165,3.682.98,7.373,1.934,11.055,2.914,13.911,3.715,27.811,7.232,41.861,10.449,10.119,2.317,20.457,4.345,30.817,5.755C179.152,664.517,182.016,664.517,184.872,664.533Z"/><path class="j" d="M1205.238,564.623a128.609,128.609,0,0,0,34.294,1.7c-15.957-1.536-31.569-5.89-46.19-10.01a272.7,272.7,0,0,0-65.092-9.941,318.048,318.048,0,0,0-66,5.031c-11.356,1.992-22.456,4.654-33.56,7.237-1.976.462-3.989.975-6.006,1.51,5.487-1.027,10.958-2.107,16.466-3.056,17.042-2.924,34.55-6.168,52.169-6.723a294.066,294.066,0,0,1,37.852,1.315c15.093,1.478,29.708,3.1,44.335,6.2C1184.548,560.226,1194.815,562.831,1205.238,564.623Z"/><path class="j" d="M388.605,600.536c-7.754,2.311-15.41,4.727-23.119,7.185-7.683,2.452-15.4,4.685-23.263,6.487-16.541,3.8-33.411,6.661-50.374,7.463-17.142.807-34.221.917-51.252-1.441-8.036-1.111-15.866-2.825-23.766-4.638-7.444-1.7-15.79-2.395-22.369-6.545-.257-.163-.794.534-.561.7,5.471,3.762,11.917,5.476,18.093,7.7a155.326,155.326,0,0,0,24.112,6.032c17.545,3.3,35.648,2.8,53.4,2.033,16.646-.729,32.915-3.569,49.1-7.437,8.412-2.007,16.521-4.852,24.707-7.6,8.316-2.794,16.541-5.927,24.816-8.846C388.471,601.5,389.136,600.374,388.605,600.536Z"/><path class="j" d="M618.055,567.028c-.037,0-.074,0-.11,0a118.907,118.907,0,0,1-21.5-2.73c-6.818-1.478-13.552-3.344-20.333-5-7.158-1.745-14.453-2.851-21.737-3.93-14.024-2.075-27.969-1.394-42,.251-3.17.372-6.32.886-9.448,1.489-.106.031-.216.052-.32.083-7.762,2.008-15.47,4.193-23.231,6.195-2.966.765-5.77,1.761-8.658,2.762-.084.026-.173.057-.262.083,13.007-2.819,26-5.707,39.257-7.074a172.58,172.58,0,0,1,43.218.655c13.584,2.007,27.151,5.314,40.787,7.5a.736.736,0,0,1,.613-.152c9.481,1.787,19.044,1.666,28.645,1.357,2.594-.083,5.329-.183,8.039-.5A109.743,109.743,0,0,1,618.055,567.028Z"/><path class="j" d="M722.923,530.68c-12.782,1.289-25.217,4.711-37.952,6.871a205.323,205.323,0,0,1-25.647,2.494,172.084,172.084,0,0,1-26.837-1.289c-8.647-1.012-17.267-2.642-25.794-4.371q-3.379-.684-6.77-1.258c-6.713-.655-13.431-1.231-20.166-1.619-10.47-.6-21.15-1.038-31.611-.094-7.939.718-15.842,2.332-23.8,1.718-.016.11.011.2.121.22,7.955,1.73,16.413.409,24.478.263a192.223,192.223,0,0,1,26.8,1.09c8.621,1.042,17.247,2.111,25.742,3.909,8.914,1.882,17.891,3.569,26.93,4.753,17.446,2.28,34.525,1.153,51.8-1.871,8.814-1.54,17.409-4.349,26.166-6.23a157,157,0,0,1,27.56-3.847c.209,0,.487-.267.675-.551A52.576,52.576,0,0,0,722.923,530.68Z"/><path class="j" d="M186.748,532.954c14.328.163,28.3,3.464,42.2,6.829,11.147,1.682,22.215,3.747,33.071,5.544,18.787,3.108,37.54,5.147,56.6,4.219A243.136,243.136,0,0,0,347.7,546.4a321.843,321.843,0,0,1-43.174,1.148c-20.016-.739-39.626-5.44-59.118-9.69-18.984-4.14-37.669-9.543-57.279-9.082-9.894.236-19.576,1.892-29.289,3.669-4.782.875-9.554,1.8-14.265,2.992a78.5,78.5,0,0,1-13.442,2.5c-.225.016-.639.708-.369.708a82.894,82.894,0,0,0,11-1.174c4.932-.645,9.829-1.615,14.765-2.269A210.581,210.581,0,0,1,186.748,532.954Z"/><path class="j" d="M264.75,483.749c-19.219.555-38.271,3.28-57.373,5.269a276.641,276.641,0,0,1-59.3-.278c-9.839-1.074-19.6-2.722-29.441-3.841-9.905-1.127-19.7-2.848-29.565-4.229-17.335-2.429-34.558-2.634-51.954-1.685,6.286.718,12.53,1.8,18.771,2.838q3.818.636,7.628,1.31c.131.008.262.013.393.021,9.773.6,19.508,1.853,29.169,3.422,9.892,1.6,19.759,2.9,29.713,4.061,9.784,1.138,19.474,2.794,29.287,3.737a197.426,197.426,0,0,0,29.824.518c19.639-1.095,39.241-4.852,58.683-7.7,7.853-1.15,15.748-1.96,23.666-2.481C264.567,484.692,265.1,483.738,264.75,483.749Z"/><g class="o"><path class="p" d="M157.291,586.166c1.1,1.316,4.729,1.808,6.548,2.1a76.134,76.134,0,0,0,11.92.76,73.531,73.531,0,0,0,7.6-.414,20.265,20.265,0,0,0,4.808-.692c1.425-.577,2.269-1.651.653-2.5-3.027-1.609-8.1-1.85-11.682-2.07a56.924,56.924,0,0,0-11.647.225C160.92,583.74,155.777,584.358,157.291,586.166Z"/><path class="q" d="M175.408,581.419c5.52.361,13.434.623,17.83,3.511,4.486,2.94-2.877,4.753-6.081,5.335-.137.026-.391-.241-.231-.273a23.319,23.319,0,0,0,6.027-1.8c3.991-2.023-2.987-3.972-4.877-4.464a84.214,84.214,0,0,0-12.558-2.128C175.431,581.586,175.274,581.408,175.408,581.419Z"/><path class="q" d="M158.6,582.582c3.394-.765,6.763-.666,10.225-.938.1,0,.272.183.162.194-3.367.414-6.6.629-9.923,1.294-1.669.33-7.218,1.819-3.6,3.993a23.154,23.154,0,0,0,7.195,2.254c.141.026.421.346.189.319-3.087-.4-9.245-1.645-9.489-4.506C153.232,583.725,157.181,582.9,158.6,582.582Z"/><path class="q" d="M166.871,590.511c3.44.183,6.815.278,10.263.162a46,46,0,0,0,7.722-.466c.086-.016.262.162.181.188-2.3.734-5.078.6-7.541.708a58.462,58.462,0,0,1-10.447-.293C166.915,590.794,166.643,590.5,166.871,590.511Z"/><path class="q" d="M192.6,582.53c2.432.707,5.238,1.807,6.137,3.752,1.378,2.987-2.088,3.92-5.209,4.989-.079.026-.244-.116-.17-.158,1.781-.943,3.424-1.493,4.619-2.924,2.028-2.436-2.874-4.617-5.311-5.46C192.573,582.7,192.4,582.472,192.6,582.53Z"/><path class="q" d="M179.272,592.99c3.5-.21,6.9-.53,10.342-1.054.024,0,.064.042.04.047a77.938,77.938,0,0,1-10.227,1.19C179.33,593.178,179.173,593,179.272,592.99Z"/><path class="q" d="M152.554,583.075c.075-.021.238.136.162.167a5.6,5.6,0,0,0-2.633,1.95c-1.528,1.891,1.624,3.825,3.521,4.6a47.031,47.031,0,0,0,7.7,1.986c.1.021.336.262.147.246-3.677-.361-8.22-1.231-10.683-3.416C148.385,586.5,148.741,584.091,152.554,583.075Z"/></g><path class="r" d="M181.2,552.627v32.732a1.357,1.357,0,0,1-.042.619c-2.3,1.221-5.629,1.431-8.333,1.362a26.91,26.91,0,0,1-6.97-.938,2.079,2.079,0,0,1-.285-1.079l.16-32.7Z"/><path class="s" d="M173.7,587.665c-.291,0-.587,0-.89-.01a26.894,26.894,0,0,1-7.054-.954.32.32,0,0,1-.176-.141,2.392,2.392,0,0,1-.33-1.237l.16-32.7a.313.313,0,0,1,.312-.309H181.2a.313.313,0,0,1,.311.314v32.706a1.662,1.662,0,0,1-.052.729.307.307,0,0,1-.155.189A16.543,16.543,0,0,1,173.7,587.665Zm-7.64-1.524a26.6,26.6,0,0,0,6.765.89c3.522.084,6.228-.34,8.055-1.263a1.057,1.057,0,0,0,.007-.341.339.339,0,0,1-.007-.068V552.937H166.038l-.16,32.386A1.81,1.81,0,0,0,166.064,586.141Z"/><path class="t" d="M166.533,575.523c.183,1.341.28,2.694.463,4.041a4.423,4.423,0,0,0,.968,2.677.181.181,0,0,0,.28-.036c1.394-3.307,1.21-6.918,1.444-10.444a52.018,52.018,0,0,1,.159,6.319c-.1,2.385-.44,4.848.2,7.19a.181.181,0,0,0,.325.043,8.258,8.258,0,0,0,1.009-3.182,8.417,8.417,0,0,0,.366,3.553,1.566,1.566,0,0,0,1.651.954,9.314,9.314,0,0,0,3.082-.5c1.763-.718,2.366-2.41,2.573-4.3.037.89.081,1.786.136,2.677a.179.179,0,0,0,.333.089c1.022-1.781,1.022-3.841,1.349-5.811l.323-1.928v8.5a1.357,1.357,0,0,1-.042.619c-2.3,1.221-5.629,1.431-8.333,1.362a26.91,26.91,0,0,1-6.97-.938,2.079,2.079,0,0,1-.285-1.079l.078-16C165.956,571.383,166.247,573.453,166.533,575.523Z"/><path class="u" d="M181.2,552.627v9.035a13.21,13.21,0,0,0-.936-2.149c-.346-.634-.967-2.29-2.232-2.29-.85,0-1.18.928-1.319,1.384-1.1,3.616-.12,7.467-.573,11.146a13.046,13.046,0,0,1-.613,3.019c-.079.215-.642,1.813-1.371.859-.319-.414-1.485-4.79-2.4-6.44a.387.387,0,0,0-.592-.058c-.969,1.038-.914,16.744-1.085,20.05a21.688,21.688,0,0,1-4.224-.781,2.079,2.079,0,0,1-.285-1.079l.16-32.7Z"/><path class="t" d="M181.2,552.627v4.334a5.694,5.694,0,0,0-.6-1.441,2.091,2.091,0,0,0-2.395-1.08c-.867.241-1.213,1.1-1.491,1.672-.149.314-.424,1.269-.988,1.331-.851.1-1.5-.922-1.91-1.3-.678-.634-2.143-1.336-3-.387-1.061,1.173-.841,3.123-.8,4.449a45.43,45.43,0,0,1,.076,5.691c-.5-2.7-.278-5.487-1.672-8.07-.112-.205-.532-.241-.623,0a10.766,10.766,0,0,0-.415,3.689c-.041,1.415-.112,2.825-.183,4.234-.152,2.987-.333,5.969-.482,8.956s-.312,5.969-.469,8.951c-.05.944-.068,1.882-.144,2.814l-.239-.063a2.079,2.079,0,0,1-.285-1.079l.16-32.7Z"/><path class="u" d="M178.845,561.95c.034-.115.3.131.312.194a96.491,96.491,0,0,1-.134,19.254c-.018.22-.474-.132-.481-.257-.268-3.669-.38-7.4-.37-11.078A28.493,28.493,0,0,1,178.845,561.95Z"/><path class="u" d="M176.1,574.947c.031-.184.369.089.387.172a16.38,16.38,0,0,1-.61,10.01c-.1.246-.681-.278-.681-.42A58.672,58.672,0,0,1,176.1,574.947Z"/><path class="u" d="M171.815,570.948c0-.152.3.078.325.142a17.333,17.333,0,0,1,.668,3.379,22.135,22.135,0,0,1-.48,4.251c-.023.23-.466-.137-.481-.257-.171-1.41-.155-2.84-.359-4.245C171.322,573.086,171.847,572.064,171.815,570.948Z"/><path class="r" d="M165.72,552.522c0,.729,3.47,1.321,7.746,1.321s7.748-.592,7.748-1.321-3.469-1.315-7.748-1.315S165.72,551.794,165.72,552.522Z"/><path class="s" d="M173.466,554.158c-.328,0-8.057-.021-8.057-1.636s7.729-1.629,8.057-1.629,8.06.021,8.06,1.629S173.8,554.158,173.466,554.158Zm-7.421-1.636c.289.378,2.917,1.012,7.421,1.012,4.611,0,7.255-.665,7.439-1.038-.184-.32-2.828-.98-7.439-.98C168.962,551.516,166.334,552.151,166.045,552.522Z"/><path class="v" d="M173.458,553.4c-.281,0-6.857-.016-6.857-.975s6.576-.969,6.857-.969,6.854.01,6.854.969S173.735,553.4,173.458,553.4Zm-6.532-.975c.264.278,2.667.661,6.532.661s6.268-.383,6.532-.661c-.264-.277-2.67-.66-6.532-.66S167.19,552.151,166.926,552.428Z"/><path class="v" d="M173.364,552.973c-1.313,0-5.6-.047-5.6-.681s4.287-.681,5.6-.681,5.6.047,5.6.681S174.676,552.973,173.364,552.973Zm-5.189-.681a23.686,23.686,0,0,0,5.189.372,23.7,23.7,0,0,0,5.188-.372,24.047,24.047,0,0,0-5.188-.372A24.036,24.036,0,0,0,168.175,552.292Z"/><path class="v" d="M173.314,552.873c-1.038,0-3.456-.057-3.456-.581s2.418-.582,3.456-.582,3.456.058,3.456.582S174.354,552.873,173.314,552.873Zm-3.055-.581a17.292,17.292,0,0,0,6.11,0,17.546,17.546,0,0,0-6.11,0Z"/><path class="w" d="M167.982,559.655c.015-.147.209.083.217.157.184,1.892.281,3.773.3,5.675.019,1.824-.33,3.674-.4,5.508,0,.121-.2-.068-.2-.147A76.033,76.033,0,0,1,167.982,559.655Z"/><path class="w" d="M167.523,577.991a12.023,12.023,0,0,1,.587-4.648c.029-.068.147.074.142.12-.535,3.7.214,7.531-.595,11.231-.04.183-.383-.209-.385-.325C167.229,582.247,167.513,580.114,167.523,577.991Z"/><path class="w" d="M172.6,560.676a10.445,10.445,0,0,1,.375-3.165c.039-.094.2.105.185.179a23.731,23.731,0,0,0,.048,3.432c-.042,1.227-.181,2.442-.3,3.663-.013.136-.21-.084-.218-.157A28.484,28.484,0,0,1,172.6,560.676Z"/><path class="w" d="M173.953,563.554c.021-.084.181.094.179.152-.024.8.026,1.6.075,2.4a5.152,5.152,0,0,1-.141,2.343c-.089.209-.385-.21-.406-.3A9.269,9.269,0,0,1,173.953,563.554Z"/><path class="w" d="M171.1,559.01c.023-.1.2.105.209.152a8.524,8.524,0,0,1,.128.97,3.816,3.816,0,0,0,.04.639c.065.278-.262.084-.341-.021C170.759,560.247,170.966,559.576,171.1,559.01Z"/><g class="o"><path class="p" d="M133.6,620.366c1.368,1.635,5.867,2.243,8.12,2.6a93.518,93.518,0,0,0,14.784.948,91.229,91.229,0,0,0,9.43-.514c1.8-.183,4.35-.214,5.961-.864,1.769-.713,2.814-2.044.812-3.1-3.755-1.992-10.054-2.3-14.49-2.569a70.4,70.4,0,0,0-14.445.278C138.106,617.358,131.725,618.128,133.6,620.366Z"/><path class="q" d="M156.075,614.476c6.847.45,16.66.776,22.115,4.354,5.563,3.653-3.571,5.9-7.543,6.624-.171.032-.485-.3-.286-.34a29.16,29.16,0,0,0,7.473-2.233c4.95-2.509-3.7-4.931-6.048-5.539a104.783,104.783,0,0,0-15.577-2.641C156.1,614.691,155.908,614.465,156.075,614.476Z"/><path class="q" d="M135.229,615.917c4.2-.943,8.384-.818,12.679-1.153.12-.01.335.22.2.236-4.174.513-8.183.775-12.307,1.6-2.07.415-8.953,2.254-4.465,4.953,2.429,1.462,5.963,2.248,8.922,2.8.175.032.521.43.235.393-3.828-.5-11.468-2.038-11.767-5.586C128.57,617.337,133.467,616.315,135.229,615.917Z"/><path class="q" d="M145.487,625.753c4.265.226,8.453.346,12.727.2,3.117-.1,6.571.074,9.579-.571.1-.021.325.2.223.236-2.846.906-6.3.739-9.352.875a72.761,72.761,0,0,1-12.957-.361C145.539,626.1,145.2,625.743,145.487,625.753Z"/><path class="q" d="M177.391,615.854c3.019.88,6.5,2.248,7.612,4.659,1.711,3.7-2.589,4.858-6.459,6.184-.1.036-.3-.147-.212-.194,2.208-1.164,4.247-1.85,5.728-3.626,2.518-3.019-3.567-5.724-6.585-6.772C177.362,616.063,177.153,615.786,177.391,615.854Z"/><path class="q" d="M160.868,628.829c4.344-.262,8.555-.654,12.826-1.3.029-.006.079.052.047.057a97.205,97.205,0,0,1-12.682,1.478C160.939,629.065,160.744,628.84,160.868,628.829Z"/><path class="q" d="M127.729,616.53c.095-.021.3.178.2.21a6.95,6.95,0,0,0-3.27,2.421c-1.895,2.342,2.015,4.743,4.368,5.706a58.261,58.261,0,0,0,9.545,2.459c.121.031.417.33.181.3-4.559-.445-10.193-1.519-13.248-4.234C122.557,620.78,123,617.8,127.729,616.53Z"/></g><path class="r" d="M163.252,578.767v40.6a1.643,1.643,0,0,1-.049.76c-2.849,1.515-6.984,1.777-10.338,1.693a33.172,33.172,0,0,1-8.644-1.163,2.6,2.6,0,0,1-.354-1.337l.2-40.556Z"/><path class="s" d="M153.966,622.148c-.362,0-.734-.006-1.109-.01a33.213,33.213,0,0,1-8.725-1.18.3.3,0,0,1-.178-.141,2.88,2.88,0,0,1-.4-1.494l.2-40.556a.312.312,0,0,1,.311-.309h19.186a.313.313,0,0,1,.312.309v40.572a2.045,2.045,0,0,1-.06.875.327.327,0,0,1-.155.194C161.169,621.566,158.017,622.148,153.966,622.148Zm-9.533-1.751a32.99,32.99,0,0,0,8.441,1.116c4.4.106,7.781-.429,10.059-1.592a1.406,1.406,0,0,0,.015-.483.316.316,0,0,1-.008-.068V579.081H144.376l-.2,40.242A2.272,2.272,0,0,0,144.433,620.4Z"/><path class="t" d="M145.065,607.165c.23,1.667.348,3.344.576,5.015a5.463,5.463,0,0,0,1.2,3.318.221.221,0,0,0,.346-.047c1.729-4.093,1.5-8.579,1.793-12.95a65.037,65.037,0,0,1,.2,7.835c-.121,2.966-.548,6.016.249,8.919a.222.222,0,0,0,.4.052,10.2,10.2,0,0,0,1.25-3.945,10.456,10.456,0,0,0,.456,4.412,1.934,1.934,0,0,0,2.046,1.179,11.5,11.5,0,0,0,3.821-.624c2.19-.891,2.937-2.987,3.191-5.334.047,1.106.1,2.216.173,3.322a.221.221,0,0,0,.409.11c1.268-2.212,1.268-4.769,1.674-7.211l.4-2.389V619.37a1.643,1.643,0,0,1-.049.76c-2.849,1.515-6.984,1.777-10.338,1.693a33.172,33.172,0,0,1-8.644-1.163,2.6,2.6,0,0,1-.354-1.337l.1-19.846C144.35,602.035,144.711,604.6,145.065,607.165Z"/><path class="u" d="M163.252,578.767v11.209a16.542,16.542,0,0,0-1.158-2.667c-.433-.781-1.2-2.835-2.77-2.835-1.056,0-1.462,1.148-1.635,1.713-1.368,4.486-.152,9.26-.71,13.819a16.173,16.173,0,0,1-.762,3.753c-.1.267-.8,2.243-1.7,1.064-.395-.514-1.842-5.943-2.977-7.987a.475.475,0,0,0-.733-.073c-1.2,1.284-1.135,20.763-1.344,24.866a27.05,27.05,0,0,1-5.241-.969,2.6,2.6,0,0,1-.354-1.337l.2-40.556Z"/><path class="t" d="M163.252,578.767v5.382a7.085,7.085,0,0,0-.747-1.792,2.583,2.583,0,0,0-2.971-1.337c-1.077.3-1.507,1.363-1.85,2.076-.183.387-.527,1.572-1.221,1.65-1.059.121-1.866-1.147-2.371-1.624-.844-.786-2.66-1.651-3.723-.477-1.319,1.452-1.046,3.873-1,5.518a55.753,55.753,0,0,1,.092,7.054c-.624-3.349-.344-6.8-2.07-10-.139-.257-.661-.3-.776,0a13.265,13.265,0,0,0-.511,4.574c-.055,1.751-.141,3.5-.23,5.252-.186,3.705-.412,7.4-.6,11.11s-.385,7.4-.582,11.1c-.062,1.169-.081,2.332-.178,3.49-.1-.026-.2-.047-.3-.078a2.6,2.6,0,0,1-.354-1.337l.2-40.556Z"/><path class="u" d="M160.336,590.333c.042-.142.38.162.39.235.931,7.945.49,15.937-.167,23.887-.021.272-.587-.163-.6-.32-.328-4.554-.469-9.176-.457-13.735C159.513,597,159.364,593.66,160.336,590.333Z"/><path class="u" d="M156.935,606.452c.036-.225.458.11.482.215a20.309,20.309,0,0,1-.76,12.41c-.126.309-.844-.336-.844-.519A72.759,72.759,0,0,1,156.935,606.452Z"/><path class="u" d="M151.618,601.49c0-.184.378.1.4.183a21.3,21.3,0,0,1,.825,4.188c.157,1.776-.4,3.5-.59,5.271-.031.283-.581-.168-.6-.314-.213-1.756-.194-3.527-.446-5.272C151.008,604.147,151.658,602.879,151.618,601.49Z"/><path class="r" d="M144.059,578.641c0,.907,4.3,1.641,9.608,1.641s9.606-.734,9.606-1.641-4.3-1.635-9.606-1.635S144.059,577.74,144.059,578.641Z"/><path class="s" d="M153.667,580.591c-.406,0-9.92-.021-9.92-1.95s9.514-1.944,9.92-1.944,9.918.021,9.918,1.944S154.071,580.591,153.667,580.591Zm-9.294-1.95c.144.467,3.443,1.326,9.294,1.326,5.87,0,9.171-.865,9.294-1.326-.12-.456-3.422-1.32-9.294-1.32C147.814,577.321,144.517,578.18,144.373,578.641Z"/><path class="v" d="M153.654,579.7c-.084,0-8.466-.017-8.466-1.169s8.382-1.169,8.466-1.169,8.466.016,8.466,1.169S153.738,579.7,153.654,579.7Zm-8.152-1.169c.187.351,3.163.854,8.152.854,5.026,0,8.013-.508,8.157-.864-.144-.336-3.131-.85-8.157-.85C148.665,577.666,145.689,578.175,145.5,578.526Z"/><path class="v" d="M153.539,579.165c-1.156,0-6.907-.037-6.907-.807s5.751-.812,6.907-.812,6.907.042,6.907.812S154.692,579.165,153.539,579.165ZM147,578.358a26.647,26.647,0,0,0,6.538.5,26.636,26.636,0,0,0,6.537-.5,26.358,26.358,0,0,0-6.537-.5A26.369,26.369,0,0,0,147,578.358Z"/><path class="v" d="M153.476,579.039c-.708,0-4.247-.031-4.247-.681s3.539-.686,4.247-.686,4.25.031,4.25.686S154.186,579.039,153.476,579.039Zm-3.886-.681a13.641,13.641,0,0,0,3.886.372,13.229,13.229,0,0,0,3.889-.372,13.229,13.229,0,0,0-3.889-.372A13.025,13.025,0,0,0,149.59,578.358Z"/><path class="w" d="M146.862,587.482c.021-.173.263.11.27.2.228,2.348.349,4.68.37,7.043.021,2.259-.409,4.554-.49,6.829,0,.151-.244-.09-.246-.184A94.116,94.116,0,0,1,146.862,587.482Z"/><path class="w" d="M146.294,610.226a15.009,15.009,0,0,1,.728-5.765c.037-.084.184.094.176.152-.663,4.591.267,9.339-.737,13.929-.049.231-.474-.262-.476-.4C145.932,615.5,146.283,612.861,146.294,610.226Z"/><path class="w" d="M152.587,588.756a13.065,13.065,0,0,1,.465-3.931c.046-.116.246.136.23.225a28.847,28.847,0,0,0,.058,4.256c-.05,1.519-.226,3.028-.37,4.543-.015.173-.262-.105-.27-.194A35.3,35.3,0,0,1,152.587,588.756Z"/><path class="w" d="M154.27,592.324c.023-.1.223.116.22.189-.029.99.032,1.991.1,2.982a6.479,6.479,0,0,1-.176,2.908c-.112.257-.477-.267-.506-.372A11.5,11.5,0,0,1,154.27,592.324Z"/><path class="w" d="M150.722,586.685c.029-.131.251.131.262.189a11.133,11.133,0,0,1,.16,1.2,4.735,4.735,0,0,0,.047.791c.081.347-.325.106-.419-.021C150.308,588.221,150.565,587.388,150.722,586.685Z"/><g class="o"><path class="p" d="M84.482,574.847c1.226,2.007,5.267,2.756,7.289,3.2a61.6,61.6,0,0,0,13.267,1.163,60.254,60.254,0,0,0,8.463-.629c1.612-.225,3.905-.262,5.351-1.064,1.585-.875,2.526-2.51.729-3.82-3.37-2.452-9.025-2.819-13.005-3.16a46.265,46.265,0,0,0-12.965.346C88.523,571.142,82.8,572.091,84.482,574.847Z"/><path class="q" d="M104.65,567.594c6.144.556,14.952.954,19.849,5.361,4.991,4.491-3.2,7.259-6.771,8.149-.152.042-.435-.372-.257-.419a21.244,21.244,0,0,0,6.708-2.746c4.441-3.092-3.325-6.068-5.426-6.818a71.537,71.537,0,0,0-13.982-3.249C104.674,567.861,104.5,567.583,104.65,567.594Z"/><path class="q" d="M85.939,569.371c3.776-1.163,7.526-1.006,11.38-1.426.11-.01.3.278.18.3a107.83,107.83,0,0,0-11.047,1.971c-1.857.508-8.033,2.772-4.009,6.094,2.181,1.8,5.354,2.767,8.01,3.443.158.037.47.53.21.482-3.435-.613-10.292-2.5-10.559-6.875C79.965,571.116,84.359,569.858,85.939,569.371Z"/><path class="q" d="M95.146,581.476a95.538,95.538,0,0,0,11.425.247c2.8-.131,5.9.089,8.594-.708.1-.026.291.251.2.288-2.555,1.122-5.652.917-8.4,1.08a47.474,47.474,0,0,1-11.626-.451C95.2,581.906,94.89,581.461,95.146,581.476Z"/><path class="q" d="M123.781,569.292c2.709,1.08,5.83,2.767,6.831,5.733,1.535,4.554-2.325,5.979-5.8,7.609-.089.042-.272-.178-.191-.235,1.984-1.436,3.813-2.28,5.141-4.465,2.262-3.716-3.2-7.043-5.909-8.333C123.754,569.554,123.566,569.208,123.781,569.292Z"/><path class="q" d="M108.95,585.26a91.721,91.721,0,0,0,11.511-1.609c.026,0,.073.063.044.074a65,65,0,0,1-11.382,1.818C109.015,585.548,108.84,585.27,108.95,585.26Z"/><path class="q" d="M79.21,570.125c.084-.031.265.215.181.257a6.863,6.863,0,0,0-2.932,2.982c-1.7,2.882,1.808,5.838,3.92,7.017,2.641,1.478,5.691,2.175,8.565,3.029.11.031.375.4.163.377-4.093-.55-9.148-1.876-11.891-5.214C74.567,575.355,74.965,571.682,79.21,570.125Z"/></g><path class="r" d="M101.768,576.639a22.363,22.363,0,0,1-7.756-1.435,4.086,4.086,0,0,1-.317-1.646l.178-50.477,17.218-.8v51.34a2.738,2.738,0,0,1-.045.934C108.491,576.419,104.778,576.744,101.768,576.639Z"/><path class="s" d="M102.766,576.97c-.327,0-.666-.011-1.008-.021a22.329,22.329,0,0,1-7.867-1.457.306.306,0,0,1-.165-.163,4.457,4.457,0,0,1-.343-1.771l.178-50.477a.309.309,0,0,1,.3-.309l17.215-.8a.276.276,0,0,1,.231.084.327.327,0,0,1,.1.226v51.336a2.913,2.913,0,0,1-.052,1,.307.307,0,0,1-.12.194C109.262,576.241,106.419,576.97,102.766,576.97Zm-8.516-2a22,22,0,0,0,7.529,1.358h0c3.938.136,6.951-.519,8.984-1.949a2.453,2.453,0,0,0,.018-.708l0-51.058-16.594.77-.178,50.178A3.928,3.928,0,0,0,94.25,574.967Z"/><path class="w" d="M93.873,523.081l17.218-.8v15.165a24.689,24.689,0,0,0-1.04-3.28c-.388-.964-1.077-3.49-2.484-3.49-.947,0-1.313,1.409-1.468,2.106-1.229,5.524-.136,11.4-.639,17.011a26.124,26.124,0,0,1-.684,4.612c-.089.33-.713,2.767-1.525,1.315-.354-.639-1.653-7.316-2.67-9.831a.366.366,0,0,0-.66-.089c-1.08,1.577-1.02,25.553-1.208,30.6a18.2,18.2,0,0,1-4.7-1.194,4.086,4.086,0,0,1-.317-1.646Z"/><path class="w" d="M110.42,528.075c-.477-1.069-1.371-2.148-2.665-1.65-.967.372-1.352,1.677-1.661,2.552-.165.477-.472,1.939-1.1,2.033-.949.147-1.671-1.415-2.128-2-.757-.969-2.387-2.033-3.341-.592-1.181,1.793-.938,4.769-.9,6.8.061,2.893.289,5.8.084,8.684-.56-4.13-.309-8.375-1.86-12.316a.362.362,0,0,0-.694,0,22,22,0,0,0-.459,5.629c-.05,2.154-.129,4.308-.207,6.462-.168,4.559-.37,9.113-.537,13.672s-.346,9.108-.522,13.662c-.057,1.436-.073,2.867-.16,4.292-.086-.031-.178-.058-.264-.1a4.086,4.086,0,0,1-.317-1.646l.178-50.477,17.218-.8v7.991A10.369,10.369,0,0,0,110.42,528.075Z"/><path class="ac" d="M108.473,537.886c.04-.178.343.2.351.293a202.742,202.742,0,0,1-.149,29.389c-.021.341-.529-.194-.54-.388-.3-5.607-.422-11.3-.409-16.911C107.737,546.1,107.6,541.979,108.473,537.886Z"/><path class="ac" d="M105.421,557.721c.033-.278.411.136.432.262a33.794,33.794,0,0,1-.681,15.276c-.116.378-.758-.419-.758-.639A122.114,122.114,0,0,1,105.421,557.721Z"/><path class="ac" d="M100.649,551.616c0-.225.341.12.362.22a34.726,34.726,0,0,1,.741,5.157,45.62,45.62,0,0,1-.529,6.493c-.026.345-.522-.21-.537-.394-.192-2.158-.173-4.339-.4-6.482C100.1,554.886,100.686,553.324,100.649,551.616Z"/><g class="o"><path class="p" d="M287.845,531.277c.962,1.578,4.127,2.16,5.71,2.5a48.294,48.294,0,0,0,10.389.912,47.39,47.39,0,0,0,6.627-.493c1.262-.178,3.06-.209,4.189-.832,1.245-.687,1.979-1.966.572-2.993-2.639-1.918-7.064-2.206-10.183-2.474A36.419,36.419,0,0,0,295,528.17C291.011,528.38,286.527,529.118,287.845,531.277Z"/><path class="q" d="M303.64,525.6c4.813.435,11.707.744,15.544,4.2,3.909,3.517-2.511,5.681-5.3,6.378-.118.032-.338-.288-.2-.324a16.668,16.668,0,0,0,5.254-2.154c3.476-2.416-2.605-4.748-4.253-5.34a55.906,55.906,0,0,0-10.948-2.542C303.658,525.806,303.522,525.591,303.64,525.6Z"/><path class="q" d="M288.988,526.991c2.955-.907,5.895-.792,8.911-1.116.087-.006.236.214.142.23a85.607,85.607,0,0,0-8.65,1.546c-1.454.4-6.291,2.169-3.139,4.774a16.512,16.512,0,0,0,6.27,2.694c.126.031.367.419.168.382-2.691-.487-8.06-1.965-8.272-5.387C284.31,528.359,287.751,527.373,288.988,526.991Z"/><path class="q" d="M296.2,536.471a76.306,76.306,0,0,0,8.946.194c2.193-.105,4.617.068,6.731-.556.077-.021.228.194.158.226-2,.88-4.426.718-6.572.843a36.99,36.99,0,0,1-9.105-.351C296.235,536.806,296,536.455,296.2,536.471Z"/><path class="q" d="M318.623,526.933c2.12.844,4.564,2.165,5.347,4.486,1.2,3.563-1.818,4.685-4.538,5.958-.07.037-.212-.141-.149-.183,1.551-1.127,2.985-1.787,4.025-3.5,1.768-2.914-2.5-5.519-4.628-6.525C318.6,527.132,318.455,526.865,318.623,526.933Z"/><path class="q" d="M307.007,539.437a72.479,72.479,0,0,0,9.016-1.263c.019,0,.058.052.034.057a50.326,50.326,0,0,1-8.914,1.421C307.06,539.657,306.923,539.442,307.007,539.437Z"/><path class="q" d="M283.718,527.583c.066-.026.207.168.144.2a5.35,5.35,0,0,0-2.3,2.332c-1.33,2.254,1.418,4.57,3.072,5.492a32.44,32.44,0,0,0,6.7,2.374c.086.026.293.315.128.294-3.2-.43-7.164-1.467-9.31-4.082C280.084,531.676,280.4,528.8,283.718,527.583Z"/></g><path class="r" d="M301.384,532.682a17.567,17.567,0,0,1-6.074-1.121,3.238,3.238,0,0,1-.249-1.29l.142-39.529,13.481-.629v40.2a2.153,2.153,0,0,1-.036.734C306.648,532.509,303.742,532.761,301.384,532.682Z"/><path class="s" d="M302.157,533.007c-.254,0-.516,0-.783-.011h0a17.675,17.675,0,0,1-6.184-1.147.3.3,0,0,1-.165-.168,3.516,3.516,0,0,1-.276-1.41l.142-39.529a.307.307,0,0,1,.3-.309l13.481-.629a.293.293,0,0,1,.231.084.327.327,0,0,1,.1.225v40.2h0a2.322,2.322,0,0,1-.042.8.336.336,0,0,1-.121.189A11.252,11.252,0,0,1,302.157,533.007Zm-.763-.634c3.051.1,5.4-.4,6.97-1.5a1.729,1.729,0,0,0,.011-.5l0-39.928-12.86.6-.139,39.23a3,3,0,0,0,.178,1.054,17.37,17.37,0,0,0,5.843,1.048Z"/><path class="w" d="M295.2,490.742l13.481-.629v11.875a19.134,19.134,0,0,0-.815-2.568c-.3-.754-.844-2.735-1.946-2.735-.739,0-1.028,1.111-1.148,1.656-.962,4.323-.1,8.924-.5,13.316a20.826,20.826,0,0,1-.534,3.616c-.069.256-.559,2.164-1.195,1.027-.278-.5-1.294-5.728-2.091-7.7a.286.286,0,0,0-.516-.069c-.847,1.237-.8,20.009-.946,23.96a14.427,14.427,0,0,1-3.682-.932,3.238,3.238,0,0,1-.249-1.29Z"/><path class="w" d="M308.158,494.651c-.373-.833-1.072-1.682-2.086-1.294-.757.294-1.059,1.315-1.3,2-.131.377-.372,1.52-.86,1.593-.743.115-1.31-1.106-1.666-1.562-.592-.76-1.868-1.6-2.615-.466-.928,1.4-.736,3.737-.7,5.324.047,2.264.225,4.539.063,6.8-.438-3.233-.242-6.556-1.457-9.642a.283.283,0,0,0-.543,0,17.394,17.394,0,0,0-.358,4.407c-.04,1.688-.1,3.375-.163,5.063-.131,3.568-.291,7.132-.419,10.7s-.27,7.133-.409,10.7c-.045,1.127-.058,2.243-.126,3.365l-.207-.078a3.238,3.238,0,0,1-.249-1.29l.142-39.529,13.481-.629v6.263A8.246,8.246,0,0,0,308.158,494.651Z"/><path class="ac" d="M306.635,502.334c.031-.136.267.158.273.231a158.161,158.161,0,0,1-.116,23.016c-.016.262-.414-.152-.421-.3-.231-4.391-.331-8.846-.323-13.243A46.516,46.516,0,0,1,306.635,502.334Z"/><path class="ac" d="M304.243,517.867c.028-.215.325.11.34.21a26.489,26.489,0,0,1-.532,11.959c-.091.3-.594-.326-.594-.5A95.61,95.61,0,0,1,304.243,517.867Z"/><path class="ac" d="M300.509,513.088c0-.178.265.094.283.173a27.823,27.823,0,0,1,.579,4.04,35.624,35.624,0,0,1-.414,5.078c-.021.273-.409-.163-.422-.3-.149-1.693-.136-3.4-.312-5.078C300.079,515.645,300.535,514.429,300.509,513.088Z"/><g class="o"><path class="p" d="M192.822,553.628c1.229,2.013,5.266,2.757,7.289,3.2a61.571,61.571,0,0,0,13.269,1.168,60.208,60.208,0,0,0,8.461-.633c1.614-.22,3.907-.263,5.351-1.059,1.588-.881,2.526-2.515.731-3.826-3.373-2.447-9.024-2.819-13-3.16a46.3,46.3,0,0,0-12.965.346C196.862,549.923,191.137,550.872,192.822,553.628Z"/><path class="q" d="M212.99,546.381c6.144.55,14.953.953,19.848,5.355,4.994,4.5-3.2,7.259-6.768,8.154-.154.037-.435-.372-.257-.424a21.212,21.212,0,0,0,6.708-2.746c4.439-3.087-3.325-6.063-5.429-6.818a71.155,71.155,0,0,0-13.979-3.244C213.016,546.643,212.841,546.365,212.99,546.381Z"/><path class="q" d="M194.281,548.157c3.776-1.163,7.525-1.012,11.38-1.425.107-.011.3.272.181.293A109.408,109.408,0,0,0,194.8,549c-1.858.508-8.037,2.772-4.009,6.1,2.18,1.792,5.353,2.761,8.007,3.437.158.042.469.53.212.487-3.435-.618-10.292-2.5-10.562-6.88C188.307,549.9,192.7,548.644,194.281,548.157Z"/><path class="q" d="M203.486,560.263a95.741,95.741,0,0,0,11.424.241c2.8-.131,5.9.089,8.6-.7.1-.026.291.247.2.289-2.552,1.116-5.65.912-8.393,1.074a47.445,47.445,0,0,1-11.629-.446C203.536,560.693,203.232,560.242,203.486,560.263Z"/><path class="q" d="M232.123,548.079c2.707,1.079,5.83,2.761,6.831,5.728,1.535,4.559-2.324,5.984-5.8,7.614-.089.042-.27-.178-.189-.236,1.982-1.441,3.813-2.279,5.142-4.47,2.258-3.711-3.2-7.038-5.909-8.333C232.1,548.335,231.908,548,232.123,548.079Z"/><path class="q" d="M217.292,564.047a94.016,94.016,0,0,0,11.511-1.609c.026-.006.073.062.042.068a64.463,64.463,0,0,1-11.382,1.818C217.355,564.329,217.182,564.051,217.292,564.047Z"/><path class="q" d="M187.553,548.907c.081-.027.264.214.18.262a6.838,6.838,0,0,0-2.932,2.976c-1.7,2.882,1.808,5.838,3.92,7.017,2.641,1.478,5.691,2.175,8.565,3.034.11.032.375.4.163.373-4.093-.551-9.15-1.876-11.891-5.209C182.909,554.137,183.307,550.468,187.553,548.907Z"/></g><path class="r" d="M210.11,555.42a22.344,22.344,0,0,1-7.758-1.43,4.152,4.152,0,0,1-.317-1.646l.18-50.477,17.215-.8V552.4a2.78,2.78,0,0,1-.041.938C216.831,555.2,213.121,555.525,210.11,555.42Z"/><path class="s" d="M211.1,555.751c-.326,0-.658-.006-1-.016h0a22.4,22.4,0,0,1-7.866-1.457.3.3,0,0,1-.168-.168,4.429,4.429,0,0,1-.343-1.766l.181-50.477a.316.316,0,0,1,.3-.314l17.213-.8a.3.3,0,0,1,.23.089.3.3,0,0,1,.1.226V552.4h0a2.879,2.879,0,0,1-.05,1,.3.3,0,0,1-.12.188C217.6,555.027,214.756,555.751,211.1,555.751Zm-.976-.64c3.933.136,6.955-.524,8.983-1.949a2.445,2.445,0,0,0,.021-.708l0-51.063-16.592.775-.181,50.178a3.8,3.8,0,0,0,.247,1.4,21.982,21.982,0,0,0,7.527,1.362Z"/><path class="w" d="M202.215,501.867l17.215-.8v15.161a24.05,24.05,0,0,0-1.037-3.276c-.388-.964-1.077-3.5-2.484-3.5-.949,0-1.313,1.415-1.47,2.112-1.226,5.524-.134,11.4-.637,17a26.613,26.613,0,0,1-.684,4.617c-.089.325-.715,2.762-1.525,1.31-.356-.634-1.653-7.316-2.672-9.831a.363.363,0,0,0-.658-.084c-1.08,1.572-1.019,25.548-1.208,30.594a18.38,18.38,0,0,1-4.7-1.189,4.152,4.152,0,0,1-.317-1.646Z"/><path class="w" d="M218.76,506.856c-.477-1.069-1.368-2.148-2.663-1.65-.967.372-1.355,1.682-1.661,2.557-.167.477-.472,1.934-1.1,2.034-.948.141-1.674-1.415-2.128-2-.757-.969-2.387-2.039-3.34-.592-1.182,1.787-.941,4.768-.9,6.792.06,2.9.288,5.8.081,8.683-.558-4.13-.307-8.369-1.858-12.315a.365.365,0,0,0-.7,0,22.2,22.2,0,0,0-.456,5.633c-.05,2.154-.128,4.308-.207,6.462-.167,4.559-.372,9.113-.537,13.667s-.346,9.108-.524,13.662c-.055,1.441-.073,2.867-.157,4.3-.089-.036-.181-.062-.267-.1a4.152,4.152,0,0,1-.317-1.646l.18-50.477,17.215-.8v7.992A10.352,10.352,0,0,0,218.76,506.856Z"/><path class="ac" d="M216.815,516.667c.037-.173.341.2.349.293a202.106,202.106,0,0,1-.149,29.394c-.019.336-.527-.2-.538-.393-.3-5.6-.421-11.293-.409-16.9C216.076,524.879,215.943,520.765,216.815,516.667Z"/><path class="ac" d="M213.763,536.5c.034-.278.411.142.432.268a33.839,33.839,0,0,1-.681,15.275c-.115.378-.758-.419-.758-.639A122.423,122.423,0,0,1,213.763,536.5Z"/><path class="ac" d="M208.991,530.4c0-.225.341.121.362.22a34.8,34.8,0,0,1,.741,5.157,45.932,45.932,0,0,1-.529,6.488c-.029.346-.522-.21-.537-.393-.194-2.154-.176-4.334-.4-6.483C208.444,533.667,209.025,532.111,208.991,530.4Z"/><g class="o"><path class="p" d="M-12.142,548.084c1.226,2.007,5.266,2.756,7.289,3.2a61.649,61.649,0,0,0,13.266,1.163,60.274,60.274,0,0,0,8.464-.634c1.611-.22,3.9-.262,5.35-1.059,1.586-.88,2.527-2.515.729-3.82-3.37-2.453-9.024-2.82-13-3.16a46.5,46.5,0,0,0-12.966.34C-8.1,544.379-13.83,545.327-12.142,548.084Z"/><path class="q" d="M8.026,540.831c6.144.555,14.951.953,19.848,5.361,4.992,4.491-3.2,7.258-6.771,8.149-.151.037-.435-.372-.257-.42a21.3,21.3,0,0,0,6.708-2.751c4.442-3.086-3.325-6.063-5.429-6.812a71.549,71.549,0,0,0-13.979-3.25C8.049,541.093,7.873,540.82,8.026,540.831Z"/><path class="q" d="M-10.686,542.607c3.776-1.163,7.526-1.011,11.38-1.425.108-.01.3.272.181.3a107.729,107.729,0,0,0-11.047,1.97c-1.858.508-8.036,2.772-4.006,6.1,2.177,1.8,5.35,2.762,8.007,3.437.155.043.469.535.21.488-3.435-.619-10.292-2.5-10.562-6.876C-16.66,544.352-12.266,543.1-10.686,542.607Z"/><path class="q" d="M-1.478,554.713a95.514,95.514,0,0,0,11.424.241c2.8-.131,5.9.089,8.6-.7.1-.026.293.246.2.288-2.554,1.122-5.651.912-8.4,1.074a47.17,47.17,0,0,1-11.626-.445C-1.429,555.143-1.732,554.692-1.478,554.713Z"/><path class="q" d="M27.156,542.529c2.707,1.079,5.83,2.767,6.831,5.733,1.538,4.554-2.324,5.979-5.8,7.609-.09.042-.27-.178-.189-.236,1.984-1.441,3.812-2.279,5.141-4.465,2.261-3.715-3.2-7.043-5.909-8.332C27.13,542.785,26.944,542.445,27.156,542.529Z"/><path class="q" d="M12.325,558.5a92.652,92.652,0,0,0,11.511-1.609c.026,0,.073.063.045.073A64.854,64.854,0,0,1,12.5,558.774C12.391,558.78,12.215,558.507,12.325,558.5Z"/></g><path class="r" d="M5.144,549.876a22.475,22.475,0,0,1-7.757-1.436,4.135,4.135,0,0,1-.316-1.646l.178-50.476,17.217-.8v51.336a2.741,2.741,0,0,1-.044.938C11.867,549.65,8.157,549.976,5.144,549.876Z"/><path class="s" d="M6.134,550.2c-.328,0-.66,0-1-.016h0a22.318,22.318,0,0,1-7.866-1.457.3.3,0,0,1-.168-.167,4.437,4.437,0,0,1-.34-1.767l.178-50.476a.31.31,0,0,1,.3-.309l17.215-.8a.3.3,0,0,1,.231.084.317.317,0,0,1,.1.225v51.336h0a2.976,2.976,0,0,1-.05,1,.292.292,0,0,1-.123.189C12.637,549.478,9.789,550.2,6.134,550.2Zm-.98-.64c3.93.137,6.954-.523,8.985-1.949a2.413,2.413,0,0,0,.018-.708l0-51.058-16.595.771-.178,50.177a3.869,3.869,0,0,0,.244,1.41,21.983,21.983,0,0,0,7.528,1.357Z"/><path class="w" d="M-2.751,496.318l17.217-.8v15.166a24.13,24.13,0,0,0-1.04-3.28c-.388-.965-1.077-3.5-2.484-3.5-.946,0-1.313,1.415-1.47,2.112-1.226,5.524-.134,11.4-.637,17.005a26.074,26.074,0,0,1-.684,4.618c-.089.33-.712,2.761-1.525,1.31-.356-.634-1.653-7.311-2.669-9.832a.368.368,0,0,0-.661-.083c-1.08,1.577-1.019,25.552-1.208,30.593a18.365,18.365,0,0,1-4.7-1.189,4.135,4.135,0,0,1-.316-1.646Z"/><path class="w" d="M13.8,501.307c-.477-1.064-1.371-2.148-2.665-1.651-.967.372-1.353,1.682-1.659,2.558-.168.477-.474,1.934-1.1,2.033-.948.147-1.671-1.415-2.125-2-.757-.969-2.389-2.038-3.343-.592-1.181,1.787-.938,4.769-.9,6.792.06,2.9.288,5.8.084,8.683-.561-4.124-.309-8.369-1.861-12.315a.363.363,0,0,0-.694,0,22.019,22.019,0,0,0-.458,5.634c-.05,2.153-.127,4.307-.208,6.461-.167,4.56-.369,9.113-.537,13.673s-.345,9.1-.521,13.656c-.055,1.442-.073,2.867-.16,4.3-.087-.037-.178-.063-.265-.1a4.135,4.135,0,0,1-.316-1.646l.178-50.476,17.217-.8v7.992A10.5,10.5,0,0,0,13.8,501.307Z"/><path class="ad" d="M11.849,511.117c.039-.173.343.2.351.3a202.743,202.743,0,0,1-.149,29.389c-.021.335-.53-.2-.54-.393-.294-5.6-.422-11.294-.409-16.906C11.11,519.334,10.976,515.216,11.849,511.117Z"/><path class="ac" d="M8.8,530.953c.034-.278.411.141.432.267A33.787,33.787,0,0,1,8.547,546.5c-.115.377-.757-.42-.757-.64A122.392,122.392,0,0,1,8.8,530.953Z"/><path class="ad" d="M4.025,524.853c0-.226.34.12.361.22a34.9,34.9,0,0,1,.741,5.156,45.48,45.48,0,0,1-.529,6.488c-.026.351-.521-.21-.537-.388-.194-2.159-.173-4.339-.4-6.482C3.477,528.118,4.061,526.561,4.025,524.853Z"/><g class="o"><path class="p" d="M175.412,519.093c.7,1.143,3,1.567,4.149,1.819a38.581,38.581,0,0,0,12.365.3,9.72,9.72,0,0,0,3.044-.6c.9-.5,1.436-1.431.414-2.175-1.918-1.4-5.133-1.609-7.4-1.8a26.525,26.525,0,0,0-7.376.2C177.713,516.982,174.456,517.521,175.412,519.093Z"/><path class="q" d="M186.889,514.969c3.5.314,8.506.54,11.294,3.05,2.84,2.552-1.824,4.124-3.855,4.633-.084.02-.246-.21-.144-.236A12.2,12.2,0,0,0,198,520.849c2.526-1.756-1.892-3.448-3.09-3.878a40.3,40.3,0,0,0-7.955-1.845C186.9,515.116,186.8,514.958,186.889,514.969Z"/><path class="q" d="M176.243,515.98c2.149-.665,4.282-.576,6.475-.812.063-.01.173.158.1.168a59.962,59.962,0,0,0-6.283,1.121c-1.059.288-4.572,1.577-2.283,3.47a11.93,11.93,0,0,0,4.557,1.954c.089.026.268.3.121.278-1.955-.351-5.857-1.425-6.008-3.915C172.845,516.971,175.345,516.253,176.243,515.98Z"/><path class="q" d="M181.481,522.866a53.842,53.842,0,0,0,6.5.137,21.123,21.123,0,0,0,4.89-.4c.054-.015.167.142.114.163-1.451.639-3.214.519-4.776.613a26.885,26.885,0,0,1-6.616-.257C181.51,523.108,181.337,522.856,181.481,522.866Z"/><path class="q" d="M197.774,515.933c1.54.613,3.317,1.572,3.886,3.26.875,2.594-1.321,3.406-3.3,4.334-.052.021-.157-.105-.11-.136a8.977,8.977,0,0,0,2.927-2.542c1.284-2.118-1.821-4.009-3.364-4.743C197.758,516.08,197.654,515.886,197.774,515.933Z"/><path class="q" d="M189.337,525.015a53.1,53.1,0,0,0,6.548-.912c.015,0,.042.037.026.042a37.056,37.056,0,0,1-6.478,1.032C189.373,525.183,189.274,525.026,189.337,525.015Z"/><path class="q" d="M172.415,516.405c.047-.016.15.126.1.147a3.885,3.885,0,0,0-1.669,1.7c-.967,1.64,1.03,3.317,2.233,3.993a23.74,23.74,0,0,0,4.873,1.724c.061.015.212.231.092.21-2.329-.309-5.206-1.064-6.766-2.967C169.774,519.381,170,517.291,172.415,516.405Z"/></g><path class="r" d="M185.249,520.11a12.738,12.738,0,0,1-4.412-.812,2.331,2.331,0,0,1-.181-.938l.1-28.719,9.8-.455v29.2a1.628,1.628,0,0,1-.026.535A8.7,8.7,0,0,1,185.249,520.11Z"/><path class="s" d="M185.815,520.435c-.188,0-.38-.006-.576-.01a12.946,12.946,0,0,1-4.523-.839.326.326,0,0,1-.167-.168,2.669,2.669,0,0,1-.205-1.058l.1-28.723a.315.315,0,0,1,.3-.31l9.8-.456a.3.3,0,0,1,.231.089.309.309,0,0,1,.094.226v29.2a1.587,1.587,0,0,1-.031.6.293.293,0,0,1-.121.188A8.252,8.252,0,0,1,185.815,520.435Zm-4.737-1.378a12.47,12.47,0,0,0,4.182.743h0a8.3,8.3,0,0,0,4.983-1.052,1.3,1.3,0,0,0,0-.305l0-28.933-9.171.43-.1,28.42A2.08,2.08,0,0,0,181.078,519.057Z"/><path class="w" d="M180.758,489.641l9.8-.455v8.626a14.041,14.041,0,0,0-.592-1.866c-.22-.55-.613-1.986-1.415-1.986-.537,0-.747.8-.836,1.2-.7,3.139-.076,6.483-.361,9.674a15.181,15.181,0,0,1-.388,2.625c-.053.189-.409,1.572-.87.75-.2-.362-.941-4.161-1.52-5.6a.207.207,0,0,0-.374-.047c-.616.9-.58,14.537-.687,17.409a10.569,10.569,0,0,1-2.675-.676,2.331,2.331,0,0,1-.181-.938Z"/><path class="w" d="M190.172,492.476c-.272-.607-.778-1.22-1.517-.938-.55.216-.767.96-.943,1.457-.1.273-.27,1.1-.626,1.154-.54.083-.951-.8-1.21-1.133-.43-.555-1.358-1.158-1.9-.34-.674,1.022-.535,2.714-.511,3.868.034,1.65.165,3.3.047,4.941-.317-2.347-.176-4.763-1.058-7.006a.207.207,0,0,0-.4,0,12.617,12.617,0,0,0-.26,3.2c-.029,1.226-.073,2.452-.118,3.678-.1,2.589-.212,5.183-.306,7.777s-.2,5.183-.3,7.772c-.032.817-.042,1.63-.089,2.442a1.51,1.51,0,0,1-.152-.052,2.331,2.331,0,0,1-.181-.938l.1-28.719,9.8-.455v4.543A6.239,6.239,0,0,0,190.172,492.476Z"/><path class="ac" d="M189.064,498.063c.024-.1.194.115.2.168a115.232,115.232,0,0,1-.083,16.722c-.014.189-.3-.115-.307-.225-.168-3.186-.241-6.425-.233-9.617A33.852,33.852,0,0,1,189.064,498.063Z"/><path class="ac" d="M187.327,509.346c.021-.157.236.079.247.152a19.256,19.256,0,0,1-.388,8.694c-.066.209-.43-.241-.43-.367A69.631,69.631,0,0,1,187.327,509.346Z"/><path class="ad" d="M184.612,505.877c0-.131.194.068.208.126a19.9,19.9,0,0,1,.421,2.934,25.622,25.622,0,0,1-.3,3.689c-.013.2-.3-.12-.3-.225-.11-1.226-.1-2.463-.228-3.684C184.3,507.732,184.633,506.846,184.612,505.877Z"/><path class="ae" d="M-21.209,502.774c111.712-5.439,223.322-13.269,335.128-16.5-.062,1.756-.1,2.633-.16,4.389-109.626,18.2-222.4,37.166-334.968,56.352Z"/><path class="s" d="M-21.209,547.324a.318.318,0,0,1-.2-.073.317.317,0,0,1-.11-.241V502.774a.315.315,0,0,1,.3-.314C17,500.6,55.845,498.424,93.417,496.318c72.238-4.045,146.939-8.23,220.494-10.361a.326.326,0,0,1,.231.092.323.323,0,0,1,.089.234l-.162,4.386a.315.315,0,0,1-.26.3c-110.844,18.4-223.544,37.36-334.965,56.352A.2.2,0,0,1-21.209,547.324Zm.312-44.256v43.575c111.22-18.955,223.707-37.879,334.353-56.252l.141-3.8c-73.44,2.132-148.021,6.309-220.146,10.35C55.976,499.043,17.231,501.213-20.9,503.068Z"/><path class="af" d="M304.9,486.555c.139,1.829.319,3.663.5,5.492l-.574.094c-.191-1.855-.4-3.715-.626-5.565C304.434,486.568,304.667,486.56,304.9,486.555Z"/><path class="af" d="M301.7,486.655q.967-.031,1.934-.061c.236,1.879.445,3.755.636,5.641-.89.148-1.784.3-2.678.446C301.641,490.674,301.693,488.662,301.7,486.655Z"/><path class="af" d="M240.308,501.931c.05-4.292.074-8.627-.13-12.923,1.11-.048,2.219-.095,3.33-.147.775,4.344,1.279,8.736,1.664,13.08,0,.047.007.089.01.131-1.63.272-3.259.55-4.889.818Z"/><path class="af" d="M247.271,501.726c-.511.084-1.023.168-1.533.257-.058-.639-.116-1.274-.179-1.913-.374-3.742-.841-7.5-1.5-11.23.785-.037,1.574-.068,2.36-.1.393,4.3.663,8.62.852,12.933C247.268,501.689,247.271,501.705,247.271,501.726Z"/><path class="af" d="M217.554,492.933c.027-.965.037-1.929.05-2.893q5.184-.252,10.363-.488c.178.593.351,1.19.524,1.782,1.239,4.282,2.374,8.611,3.236,12.986q-7.644,1.283-15.305,2.563A132.189,132.189,0,0,0,217.554,492.933Z"/><path class="af" d="M99.257,496.307l14.939-.833q.027,1.179.055,2.359c.149,6.209.031,12.383-.341,18.582-.157,2.6-.359,5.2-.639,7.8q-3.4.575-6.8,1.143a97.384,97.384,0,0,0-2.107-12.923A95.183,95.183,0,0,0,99.257,496.307Z"/><path class="af" d="M87.438,496.968q3.581-.2,7.156-.4c.3,1.29.594,2.579.867,3.873a58.645,58.645,0,0,1,1.229,15.329c-.2,3.82-.569,7.635-1.093,11.424q-1.776.3-3.556.6a122.818,122.818,0,0,0-.788-12.677A117.993,117.993,0,0,0,87.438,496.968Z"/><path class="af" d="M129.314,514.146c-.107,2.458-.2,4.937-.348,7.421-.307.052-.616.105-.922.152-.857-4.418-1.905-8.8-2.576-13.028A124.293,124.293,0,0,0,122.74,495l6.771-.378c.008.3.016.608.023.917Q129.716,504.85,129.314,514.146Z"/><path class="af" d="M55.575,523.291c.482-6.472,1.274-12.949,1.63-19.427.095-1.745.144-3.49.294-5.224l3.566-.2c.01.22.023.44.031.655.116,2.773.181,5.555.149,8.327-.081,6.8-.6,13.584-1.32,20.339-.2,1.865-.432,3.731-.676,5.592l-4.47.754C55.049,530.5,55.305,526.9,55.575,523.291Z"/><path class="af" d="M38.871,524.706c-.584-8.322-1.422-16.623-2.159-24.935l6.359-.345q1.133,5.81,1.853,11.691c1,8.076,1.58,16.183,2.091,24.3q-3.7.63-7.4,1.253C39.424,532.682,39.152,528.689,38.871,524.706Z"/><path class="af" d="M7.89,518.323c3.055,5.435,3.217,12.121,3.71,18.179.131,1.609.249,3.239.338,4.874l-5.173.88c.042-1.588.084-3.165.181-4.726.217-3.449.367-6.9.422-10.356.024-1.593.042-3.181.024-4.769A10.037,10.037,0,0,1,7.89,518.323Z"/><path class="af" d="M14.254,516.274a187.651,187.651,0,0,1,3.705,24.08q-2.481.417-4.958.844c.226-1.583.446-3.166.629-4.748C14.411,529.726,13.942,523,14.254,516.274Z"/><path class="af" d="M-.889,527.651c2.453,4.737,3.2,9.978,3.8,15.26-1.033.173-2.062.351-3.095.524C-.236,538.163-.938,532.928-.889,527.651Z"/><path class="af" d="M66.311,522.872c.683-7.845.964-15.685.917-23.562,0-.4-.011-.807-.014-1.21q8.356-.472,16.71-.933c.133,1.211.272,2.426.4,3.642.538,4.963.855,9.941,1.182,14.925.283,4.334.579,8.673,1.014,12.991q-10.613,1.8-21.24,3.6Q65.9,527.609,66.311,522.872Z"/><path class="af" d="M136.856,510.939a141.709,141.709,0,0,0-2.036-16.607q24.314-1.337,48.624-2.6a177.981,177.981,0,0,1,.768,19.232c-.016.44-.045.88-.066,1.326q-23.4,3.922-46.9,7.882Q137.169,515.558,136.856,510.939Z"/><path class="af" d="M188.037,491.5l8.94-.456c-.026.293-.06.6-.112.922a50.856,50.856,0,0,0-.569,5.649c-.2,4.224-.031,8.459-.262,12.683q-2.268.384-4.541.759c-.354-2.652-.754-5.3-1.221-7.929C189.6,499.31,189,495.343,188.037,491.5Z"/><path class="af" d="M196.637,509.451c.154-4.287-.013-8.59.28-12.871.092-1.326.205-2.657.414-3.972a12.973,12.973,0,0,0,.086-1.588c.991-.047,1.984-.094,2.977-.147a.126.126,0,0,0,.013.026c1.63,3.281,2.461,7.127,3.323,10.665.581,2.379,1.061,4.784,1.462,7.2q-4.3.715-8.589,1.436C196.613,509.949,196.629,509.7,196.637,509.451Z"/><path class="af" d="M305.451,486.536c2.824-.086,5.644-.183,8.468-.267-.062,1.756-.1,2.633-.16,4.389q-3.9.645-7.813,1.3C305.763,490.15,305.584,488.342,305.451,486.536Z"/><path class="af" d="M291.553,486.979c1.59-.055,3.178-.1,4.766-.157.391,2.186.726,4.371,1.02,6.567q-2.811.463-5.624.932C291.721,491.869,291.673,489.421,291.553,486.979Z"/><path class="r" d="M85.14,487.246c38.012,5.163,75.9,11.053,113.58,18.238q-9.016,1.524-18.03,3.045c-37.566-7.783-75.372-14.187-113.308-19.873Z"/><path class="s" d="M180.69,508.843a.232.232,0,0,1-.063-.011c-33.911-7.022-70.97-13.52-113.292-19.866a.315.315,0,0,1-.265-.32.311.311,0,0,1,.289-.3l17.757-1.412c.024,0,.045,0,.068,0,41.956,5.7,79.111,11.666,113.594,18.238a.318.318,0,0,1,.254.309.309.309,0,0,1-.26.3l-18.03,3.051C180.724,508.838,180.708,508.843,180.69,508.843ZM70.115,488.751c41.193,6.215,77.394,12.587,110.58,19.458l16.259-2.746c-33.982-6.441-70.579-12.3-111.822-17.9Z"/><path class="r" d="M67.382,488.656c37.936,5.686,75.742,12.09,113.308,19.873q-8.8,1.485-17.6,2.981c-37.482-8.353-75.23-15.276-113.124-21.481Q58.674,489.345,67.382,488.656Z"/><path class="s" d="M163.092,511.819a.312.312,0,0,1-.068,0c-33.707-7.509-70.7-14.532-113.106-21.475a.312.312,0,0,1,.027-.619q8.7-.684,17.414-1.373a.328.328,0,0,1,.07,0c42.333,6.346,79.4,12.85,113.324,19.877a.312.312,0,0,1,.249.309.316.316,0,0,1-.26.305q-8.8,1.485-17.6,2.976A.2.2,0,0,1,163.092,511.819ZM52.559,490.139c41.327,6.8,77.515,13.694,110.541,21.052q7.952-1.344,15.9-2.694c-33.461-6.891-70-13.285-111.628-19.526Q59.962,489.553,52.559,490.139Z"/><path class="r" d="M103.254,485.8c38.095,4.646,76.079,9.975,113.886,16.583l-18.42,3.1c-37.685-7.185-75.568-13.075-113.58-18.238Q94.2,486.525,103.254,485.8Z"/><path class="s" d="M198.72,505.793a.2.2,0,0,1-.06-.006c-34.47-6.571-71.617-12.535-113.559-18.231a.312.312,0,0,1,.015-.621l18.114-1.441a.222.222,0,0,1,.063,0c42.246,5.149,79.5,10.578,113.9,16.583a.312.312,0,0,1,.257.309.306.306,0,0,1-.259.3l-18.423,3.1A.146.146,0,0,1,198.72,505.793ZM88.046,487.328c40.763,5.578,77,11.422,110.676,17.836l16.571-2.782c-33.88-5.886-70.556-11.2-112.045-16.265Z"/><path class="r" d="M49.968,490.029c37.894,6.2,75.642,13.128,113.124,21.481q-8.568,1.455-17.131,2.909c-37.435-8.914-75.172-16.335-113.059-23.048Q41.44,490.7,49.968,490.029Z"/><path class="s" d="M145.961,514.728a.344.344,0,0,1-.073,0c-33.731-8.034-69.649-15.355-113.038-23.048a.307.307,0,0,1-.257-.32.314.314,0,0,1,.286-.3l17.066-1.337a.356.356,0,0,1,.073,0c42.414,6.944,79.423,13.971,113.142,21.481a.323.323,0,0,1,.244.314.306.306,0,0,1-.259.3l-.357.063q-8.387,1.422-16.775,2.851Zm-110.6-23.236c42.3,7.53,77.51,14.731,110.608,22.607q7.748-1.32,15.5-2.631c-33.28-7.378-69.78-14.291-111.515-21.124Z"/><path class="r" d="M199.815,478.214c38.1,1.819,76.152,4.222,114.1,8.055q-10.3,1.71-20.6,3.409c-37.7-4.368-75.508-7.462-113.378-9.933Q189.877,478.971,199.815,478.214Z"/><path class="s" d="M293.319,489.993h-.037c-34.155-3.962-70.178-7.12-113.362-9.936a.311.311,0,0,1,0-.621q9.936-.774,19.874-1.533a.178.178,0,0,1,.04,0c44.442,2.122,80.7,4.682,114.12,8.057a.312.312,0,0,1,.021.618q-10.3,1.706-20.6,3.41A.184.184,0,0,1,293.319,489.993ZM184.3,479.721c41.264,2.744,76.011,5.817,109.016,9.643q9.128-1.5,18.242-3.019c-32.755-3.257-68.341-5.746-111.733-7.819Q192.058,479.117,184.3,479.721Z"/><path class="r" d="M16.2,492.671c37.921,7.226,75.686,15.14,113.122,24.578q-8.073,1.368-16.146,2.746C75.686,510.059,37.844,501.668-.147,493.923Q8.025,493.295,16.2,492.671Z"/><path class="s" d="M113.171,520.3a.192.192,0,0,1-.078-.011c-33.07-8.762-69.073-17.047-113.3-26.066a.311.311,0,0,1-.249-.325.317.317,0,0,1,.288-.293q8.172-.622,16.343-1.253a.4.4,0,0,1,.084.006c43.685,8.326,79.637,16.135,113.137,24.583a.312.312,0,0,1,.236.314.316.316,0,0,1-.259.3l-16.146,2.74A.163.163,0,0,1,113.171,520.3ZM2.1,494.064c43.216,8.841,78.571,17,111.086,25.611l14.618-2.484C94.733,508.885,59.212,501.186,16.18,492.98Z"/><path class="r" d="M179.941,479.745c37.87,2.471,75.677,5.565,113.378,9.933l-19.225,3.192C236.168,487.981,198.12,484.325,160,481.3Q169.971,480.521,179.941,479.745Z"/><path class="s" d="M274.094,493.184a.1.1,0,0,1-.039-.005c-34.192-4.407-71.507-8.191-114.078-11.563a.313.313,0,0,1,0-.624q9.972-.783,19.94-1.556a.109.109,0,0,1,.044,0c43.195,2.817,79.227,5.974,113.395,9.933a.313.313,0,0,1,.015.619l-19.227,3.191A.164.164,0,0,1,274.094,493.184ZM163.957,481.307c40.933,3.293,77,6.977,110.132,11.248l16.989-2.819c-33.5-3.841-68.891-6.923-111.135-9.677Q171.948,480.68,163.957,481.307Z"/><path class="r" d="M140.637,482.834c38.193,3.561,76.3,7.782,114.274,13.232L235.9,499.242c-37.915-6.021-75.985-10.811-114.154-14.909Q131.191,483.582,140.637,482.834Z"/><path class="s" d="M235.9,499.551h-.05c-34.645-5.5-71.978-10.381-114.136-14.909a.309.309,0,0,1-.28-.314.316.316,0,0,1,.289-.307l18.891-1.5h.055c42.446,3.959,79.829,8.287,114.291,13.234a.31.31,0,0,1,.005.613l-19.013,3.181ZM125.088,484.38c40.8,4.429,77.075,9.192,110.808,14.548l16.977-2.841c-33.891-4.821-70.629-9.058-112.239-12.941Z"/><path class="r" d="M160,481.3c38.117,3.021,76.165,6.677,114.091,11.566q-9.589,1.6-19.183,3.2c-37.973-5.45-76.081-9.671-114.274-13.232Q150.317,482.068,160,481.3Z"/><path class="s" d="M254.911,496.376h-.044c-34.451-4.948-71.824-9.273-114.259-13.233a.306.306,0,0,1-.283-.311.31.31,0,0,1,.285-.309q9.685-.767,19.367-1.531h.05c42.581,3.375,79.9,7.159,114.106,11.569a.315.315,0,0,1,.273.3.311.311,0,0,1-.262.315l-19.183,3.191A.143.143,0,0,1,254.911,496.376ZM144.255,482.861c40.95,3.864,77.18,8.086,110.651,12.886l17.05-2.835c-33.613-4.292-70.265-7.992-111.953-11.3Q152.127,482.237,144.255,482.861Z"/><path class="r" d="M121.742,484.333c38.169,4.1,76.239,8.888,114.154,14.909q-9.378,1.572-18.756,3.144c-37.807-6.608-75.791-11.937-113.886-16.583Z"/><path class="s" d="M217.14,502.7a.22.22,0,0,1-.052,0c-34.388-6.006-71.636-11.43-113.871-16.579a.311.311,0,0,1,.013-.618l18.489-1.473h.057c42.17,4.531,79.514,9.41,114.17,14.912a.313.313,0,0,1,0,.618l-18.755,3.14A.241.241,0,0,1,217.14,502.7ZM106.359,485.868c40.965,5.037,77.234,10.34,110.784,16.2l16.814-2.819c-34.1-5.377-70.839-10.157-112.218-14.6Z"/><path class="r" d="M32.9,491.371c37.887,6.713,75.624,14.134,113.059,23.048q-8.325,1.407-16.644,2.83C91.881,507.811,54.116,499.9,16.2,492.671Q24.551,492.017,32.9,491.371Z"/><path class="s" d="M129.317,517.558a.389.389,0,0,1-.076,0c-33.489-8.443-69.428-16.257-113.1-24.579a.312.312,0,0,1,.034-.618l4.745-.367q5.979-.463,11.962-.932a.425.425,0,0,1,.079,0c43.4,7.693,79.333,15.019,113.074,23.053a.308.308,0,0,1,.238.314.312.312,0,0,1-.257.3q-8.321,1.407-16.643,2.83ZM18.543,492.8c42.632,8.16,77.89,15.843,110.787,24.133q7.535-1.281,15.067-2.562c-33.288-7.888-68.774-15.109-111.508-22.682l-11.925.928Z"/><path class="r" d="M-21.209,514.382C-.8,520.11,19.56,526.042,39.807,532.346c-5.4.886-8.065,1.321-13.337,2.175q-23.76-7.53-47.679-14.532Z"/><path class="s" d="M26.47,534.836a.316.316,0,0,1-.095-.016C11.8,530.2-3.8,525.445-21.3,520.288a.3.3,0,0,1-.222-.3v-5.607a.305.305,0,0,1,.123-.246.314.314,0,0,1,.272-.053C1.535,520.44,21.5,526.315,39.9,532.048a.311.311,0,0,1-.042.6c-5.4.89-8.068,1.325-13.339,2.179A.138.138,0,0,1,26.47,534.836ZM-20.9,519.759c17.383,5.12,32.89,9.847,47.39,14.442,4.785-.77,7.424-1.205,11.962-1.949C20.516,526.682,1.079,520.964-20.9,514.8Z"/><path class="r" d="M-21.209,525.712q17.385,5.337,34.708,10.895c-5.112.812-7.638,1.211-12.655,1.986q-11.01-3.592-22.053-7.1Z"/><path class="s" d="M.844,538.9a.3.3,0,0,1-.095-.015c-6.587-2.149-13.6-4.4-22.052-7.1a.3.3,0,0,1-.217-.294v-5.785a.316.316,0,0,1,.125-.252.3.3,0,0,1,.278-.047c12.753,3.92,24.109,7.484,34.711,10.895a.312.312,0,0,1,.217.32.32.32,0,0,1-.262.288c-5.112.813-7.641,1.2-12.656,1.986ZM-20.9,531.267c8.33,2.652,15.255,4.879,21.767,7.006,4.53-.7,7.03-1.1,11.291-1.771C2.028,533.248-8.807,529.847-20.9,526.131Z"/><path class="r" d="M-21.209,519.989Q2.7,527.033,26.47,534.521c-5.246.855-7.838,1.268-12.971,2.086q-17.317-5.572-34.708-10.895Z"/><path class="s" d="M13.5,536.916a.3.3,0,0,1-.094-.015c-10.6-3.412-21.955-6.975-34.7-10.89a.315.315,0,0,1-.22-.3v-5.723a.315.315,0,0,1,.123-.251.324.324,0,0,1,.275-.048c17.5,5.157,33.1,9.916,47.686,14.538a.31.31,0,0,1-.044.6c-5.246.855-7.838,1.269-12.971,2.086Zm-34.4-11.435c12.635,3.884,23.9,7.421,34.42,10.806,4.646-.739,7.211-1.148,11.605-1.86-14.11-4.465-29.187-9.056-46.025-14.019Z"/><path class="r" d="M-21.209,531.5q11.037,3.515,22.053,7.1c-5,.771-7.471,1.153-12.4,1.892q-4.823-1.6-9.656-3.171Z"/><path class="s" d="M-11.553,540.794a.3.3,0,0,1-.1-.016q-3.891-1.281-7.79-2.557l-1.866-.613a.312.312,0,0,1-.214-.294V531.5a.308.308,0,0,1,.128-.251.307.307,0,0,1,.278-.047c8.458,2.693,15.467,4.947,22.057,7.1a.314.314,0,0,1-.05.608c-5,.771-7.473,1.153-12.4,1.892Zm-9.344-3.7,1.651.54q3.86,1.264,7.722,2.536c4.434-.665,6.883-1.043,11.031-1.682-6.121-1.991-12.655-4.093-20.4-6.561Z"/><path class="r" d="M-21.209,498.713c34.729,8.07,69.325,16.66,103.6,26.506-5.938,1-8.87,1.5-14.655,2.469C38.281,518.962,8.591,511.127-21.209,503.7Z"/><path class="s" d="M67.736,528a.243.243,0,0,1-.087-.016C41.2,520.152,12.936,512.532-21.284,504a.308.308,0,0,1-.236-.3v-4.984a.315.315,0,0,1,.118-.246.313.313,0,0,1,.264-.058C19.275,507.8,52.2,516.222,82.478,524.92a.307.307,0,0,1,.222.315.311.311,0,0,1-.257.293c-5.94,1-8.869,1.494-14.655,2.469A.174.174,0,0,1,67.736,528ZM-20.9,503.455c34.1,8.5,62.273,16.1,88.654,23.913,5.282-.885,8.186-1.373,13.227-2.227C51.176,516.609,18.742,508.324-20.9,499.106Z"/><path class="r" d="M-.147,493.923C37.844,501.668,75.686,510.059,113.171,520l-15.64,2.657c-37.583-10.408-75.539-19.264-113.646-27.524Q-8.132,494.531-.147,493.923Z"/><path class="s" d="M97.531,522.966a.376.376,0,0,1-.081-.011c-32.766-9.076-68.873-17.817-113.63-27.517a.319.319,0,0,1-.247-.33.314.314,0,0,1,.288-.289q6.875-.51,13.747-1.043l2.221-.167a.508.508,0,0,1,.087,0c44.243,9.024,80.256,17.309,113.337,26.076a.318.318,0,0,1,.23.315.3.3,0,0,1-.259.293l-15.641,2.663A.174.174,0,0,1,97.531,522.966ZM-13.951,495.28c43.769,9.517,79.253,18.127,111.5,27.052l14.152-2.4C79.024,511.3,43.428,503.125-.168,494.238l-2.178.162Q-8.149,494.84-13.951,495.28Z"/><path class="r" d="M-21.209,508.927c25.032,6.639,49.979,13.594,74.762,21.14-5.571.928-8.317,1.383-13.746,2.279-20.247-6.3-40.6-12.236-61.016-17.964Z"/><path class="s" d="M39.807,532.656a.258.258,0,0,1-.092-.016c-18.4-5.728-38.355-11.6-61.01-17.954a.317.317,0,0,1-.225-.3v-5.455a.313.313,0,0,1,.12-.247.31.31,0,0,1,.27-.052c27.924,7.405,52.382,14.322,74.772,21.14a.311.311,0,0,1,.22.32.3.3,0,0,1-.26.283c-5.568.927-8.316,1.383-13.743,2.28A.184.184,0,0,1,39.807,532.656Zm-60.7-18.51c22.537,6.325,42.4,12.174,60.727,17.881l12.358-2.049c-21.932-6.661-45.86-13.421-73.085-20.642Z"/><path class="r" d="M-21.209,495.511c1.517-.11,3.155-.236,5.094-.383,38.107,8.26,76.063,17.116,113.646,27.524-6.131,1.042-9.161,1.556-15.14,2.567-34.275-9.846-68.871-18.436-103.6-26.506Z"/><path class="s" d="M82.391,525.528a.251.251,0,0,1-.086-.01c-30.267-8.694-63.183-17.116-103.584-26.5a.314.314,0,0,1-.241-.3v-3.2a.308.308,0,0,1,.288-.309l5.093-.383a.543.543,0,0,1,.09,0c44.769,9.706,80.887,18.452,113.664,27.529a.311.311,0,0,1,.228.314.317.317,0,0,1-.26.294l-1.881.319c-4.937.839-7.924,1.347-13.259,2.248ZM-20.9,498.467c40.271,9.359,73.108,17.76,103.306,26.432,5.291-.9,8.273-1.4,13.188-2.232l.5-.089c-32.4-8.935-68.111-17.566-112.234-27.135l-4.761.362Z"/><path class="r" d="M-21.209,503.7c29.8,7.43,59.49,15.265,88.945,23.991-5.749.969-8.584,1.441-14.183,2.379-24.783-7.546-49.73-14.5-74.762-21.14Z"/><path class="s" d="M53.553,530.376a.529.529,0,0,1-.092-.01C31.076,523.548,6.626,516.635-21.29,509.23a.313.313,0,0,1-.23-.3V503.7a.308.308,0,0,1,.118-.242.309.309,0,0,1,.267-.057c34.231,8.531,62.5,16.156,88.96,23.991a.313.313,0,0,1-.037.608c-5.748.964-8.586,1.441-14.186,2.374A.163.163,0,0,1,53.553,530.376ZM-20.9,508.691c27.8,7.373,52.159,14.259,74.471,21.056,5.1-.854,7.913-1.326,12.781-2.143-25.98-7.672-53.762-15.156-87.252-23.5Z"/><path class="r" d="M297.912,499.5c.178.058.349.121.5.173a2.723,2.723,0,0,1,2.14,2.657,2.879,2.879,0,0,1-1.569,2.715L219.409,520.5v-5.754Z"/><path class="s" d="M219.409,520.812a.346.346,0,0,1-.2-.068.33.33,0,0,1-.112-.241v-5.754a.316.316,0,0,1,.254-.309l78.5-15.24a.3.3,0,0,1,.152.006c.178.057.348.12.493.173,1.616.591,2.426,1.619,2.363,2.971a3.188,3.188,0,0,1-1.73,2.971.3.3,0,0,1-.091.032L219.47,520.807A.251.251,0,0,1,219.409,520.812Zm.312-5.806v5.114l79.15-15.37a2.553,2.553,0,0,0,1.365-2.432c.05-1.069-.6-1.86-1.936-2.352-.129-.043-.265-.1-.409-.142Z"/><path class="r" d="M297.912,499.5c.178.058.349.121.5.173a2.723,2.723,0,0,1,2.14,2.657,2.879,2.879,0,0,1-1.569,2.715L219.409,520.5v-5.754Z"/><path class="s" d="M219.409,520.812a.346.346,0,0,1-.2-.068.33.33,0,0,1-.112-.241v-5.754a.316.316,0,0,1,.254-.309l78.5-15.24a.3.3,0,0,1,.152.006c.178.057.348.12.493.173,1.616.591,2.426,1.619,2.363,2.971a3.188,3.188,0,0,1-1.73,2.971.3.3,0,0,1-.091.032L219.47,520.807A.251.251,0,0,1,219.409,520.812Zm.312-5.806v5.114l79.15-15.37a2.553,2.553,0,0,0,1.365-2.432c.05-1.069-.6-1.86-1.936-2.352-.129-.043-.265-.1-.409-.142Z"/><path class="r" d="M-21.209,561.473,95.345,538.839a2.813,2.813,0,0,1,2.2,3.4,4.322,4.322,0,0,1-1.488,2.211L-20.535,567.1a2.744,2.744,0,0,1-.543.053c-.044,0-.086-.011-.131-.011Z"/><path class="s" d="M-21.078,567.463a.7.7,0,0,1-.11-.011.374.374,0,0,1-.332-.314v-5.665a.308.308,0,0,1,.251-.3L95.288,538.536a.264.264,0,0,1,.131,0A3.484,3.484,0,0,1,97.56,540.1a2.827,2.827,0,0,1,.29,2.227,4.608,4.608,0,0,1-1.592,2.369.276.276,0,0,1-.139.068L-20.478,567.4A2.912,2.912,0,0,1-21.078,567.463Zm.181-5.733v5.1a2.679,2.679,0,0,0,.3-.037L95.922,544.164a3.972,3.972,0,0,0,1.326-2.007,2.19,2.19,0,0,0-.228-1.74,2.81,2.81,0,0,0-1.682-1.258Z"/><path class="w" d="M-21.209,565.058c25.1-5.854,85.282-17.467,92.773-18.793,3.771-.665,7.51-1.467,11.265-2.216,1.766-.357,3.548-.608,5.316-.938a7.678,7.678,0,0,0,3.058-1.028c.888-.634,1.625-1.839.629-2.562l3.513-.682a2.813,2.813,0,0,1,2.2,3.4,4.322,4.322,0,0,1-1.488,2.211L-20.535,567.1a2.744,2.744,0,0,1-.543.053,1.177,1.177,0,0,1-.131-.011Z"/><path class="r" d="M111.3,535.742l91.505-17.77a5.309,5.309,0,0,1,2.01.7c1.019.692,1.907,2.348,1.095,3.517a3.933,3.933,0,0,1-1.5,1.22L111.3,541.5Z"/><path class="s" d="M111.3,541.8a.3.3,0,0,1-.2-.068.31.31,0,0,1-.112-.241v-5.754a.309.309,0,0,1,.251-.3l91.505-17.77a.443.443,0,0,1,.115,0,5.572,5.572,0,0,1,2.13.749,3.7,3.7,0,0,1,1.5,2.259,2.2,2.2,0,0,1-.327,1.693,4.235,4.235,0,0,1-1.609,1.32.27.27,0,0,1-.084.032L111.358,541.8A.278.278,0,0,1,111.3,541.8Zm.312-5.806v5.12l92.7-18.006a3.565,3.565,0,0,0,1.344-1.1,1.567,1.567,0,0,0,.228-1.221,3.094,3.094,0,0,0-1.242-1.855,4.914,4.914,0,0,0-1.834-.645Z"/><path class="w" d="M119.261,536.848c9.071-1.771,18.171-3.406,27.221-5.266,8.964-1.851,17.952-3.6,26.986-5.058,8.8-1.425,17.436-3.542,26.193-5.14,1.441-.263,4.941-.451,5.175-2.448a1.974,1.974,0,0,0,.007-.241c1.006.7,1.871,2.337,1.067,3.5a3.933,3.933,0,0,1-1.5,1.22L111.3,541.5v-3.081C113.942,537.839,116.611,537.367,119.261,536.848Z"/><path class="w" d="M226.709,516.326c4-.655,7.977-1.483,11.949-2.3,8.065-1.651,16.109-3.307,24.216-4.759,8.16-1.457,16.316-2.95,24.431-4.648,1.947-.409,3.9-.948,5.875-1.19a13.283,13.283,0,0,0,3.359-.691c1.659-.655,1.866-2.128.781-3.124l.592-.115c.178.058.349.121.5.173a2.723,2.723,0,0,1,2.14,2.657,2.879,2.879,0,0,1-1.569,2.715L219.409,520.5v-2.83C221.817,517.107,224.268,516.73,226.709,516.326Z"/><path class="ac" d="M-21.209,541.915c3.373-.492,5.689-.838,9.656-1.43,4.926-.739,7.4-1.121,12.4-1.892,5.017-.775,7.543-1.174,12.655-1.986,5.133-.818,7.725-1.231,12.971-2.086,5.272-.854,7.936-1.289,13.337-2.175,5.429-.9,8.175-1.351,13.746-2.279,5.6-.938,8.434-1.41,14.183-2.379,5.785-.97,8.717-1.468,14.655-2.469,5.979-1.011,9.009-1.525,15.14-2.567L113.171,520q8.073-1.375,16.146-2.746,8.32-1.416,16.644-2.83,8.563-1.462,17.131-2.909,8.8-1.493,17.6-2.981,9.017-1.525,18.03-3.045l18.42-3.1q9.378-1.579,18.756-3.144l19.015-3.176q9.591-1.594,19.183-3.2l19.225-3.192q10.3-1.7,20.6-3.409c-37.952-3.833-76-6.236-114.1-8.055q-9.936.756-19.874,1.531-9.969.779-19.938,1.559-9.685.762-19.366,1.53-9.445.747-18.895,1.5l-18.488,1.47q-9.056.723-18.114,1.443l-17.758,1.41q-8.709.693-17.414,1.373-8.534.677-17.066,1.342-8.348.653-16.707,1.3-8.171.628-16.342,1.252-7.986.606-15.968,1.2c-1.939.147-3.577.273-5.094.383Zm93.344-49.549c53.186-6.747,105.282-11.722,127.077-10.892,0,0,85.8,2.487,68.633,7.266s-198.484,39.912-243.912,35.9S18.947,499.111,72.135,492.366Z"/><path class="ad" d="M295.824,500.594l-75.073,14.715s.33.43,2.73.614,69.359-13.83,69.359-13.83S296.083,501.574,295.824,500.594Z"/><path class="ad" d="M201.167,519.256,112.71,536.35s.461.514,3.108.058c2.371-.4,82.367-15.653,82.367-15.653S201.429,520.23,201.167,519.256Z"/><path class="ad" d="M89.625,540.668l-106.151,20.9s.223.876,2.869.425c2.371-.409,100.3-19.825,100.3-19.825S89.883,541.643,89.625,540.668Z"/><path class="ad" d="M312,486.445l-277.671,46.8S276.088,488.468,312,486.445Z"/><path class="x" d="M463.208,615.99c1.4-.492,2.809-.969,4.229-1.409,6.3-1.94,12.761-3.239,19.133-4.879-9.4,1.011-18.587,3.652-27.743,5.921-9.2,2.275-17.687,6.352-26.155,10.513-8.532,4.192-16.906,8.118-24.982,13.19-4.143,2.605-8.293,5.215-12.372,7.908a63.312,63.312,0,0,0-5.354,4.035c-.325.273-.658.587-1,.922,3.744-2.378,7.444-4.831,11.4-6.869,1.129-.582,2.268-1.148,3.406-1.714a208.181,208.181,0,0,1,26.333-14.144c8.909-3.973,17.394-8.773,26.769-11.645Q460.03,616.861,463.208,615.99Z"/><path class="x" d="M205.656,651.2c-15.835-1.64-31.616-3.517-47.215-6.729-8.036-1.656-16.1-3.412-23.959-5.764-7.685-2.3-15.426-4-23.19-5.99-15.865-4.062-31.613-7.992-47.795-10.633a201.922,201.922,0,0,0-25.839-2.311c-4.08-.132-8.139.036-12.211.267-3.655.209-7.11,1.237-10.724,1.535-.259.021-.721.813-.422.808,3.428-.063,6.768-.828,10.222-.834a109.652,109.652,0,0,1,11.657.645c8.416.89,16.906,1.892,25.254,3.264,16.167,2.668,32.13,6.567,48.119,10.1,7.536,1.667,15.066,3,22.542,4.942,7.96,2.07,15.936,3.988,23.993,5.66A263.408,263.408,0,0,0,205.16,652C205.454,652.008,205.991,651.228,205.656,651.2Z"/><path class="x" d="M808.626,596.223c-7.064-3.123-14.642-4.779-22.23-6.1a117.06,117.06,0,0,0-24.321-2.06c-8.5.31-17.037,2.642-25.181,4.927-8.642,2.426-17.142,5.025-25.684,7.8-4.03,1.311-7.8,3.265-11.844,4.57-4.4,1.421-8.861,2.741-13.316,4a110.609,110.609,0,0,1-22.649,3.726,167.993,167.993,0,0,1-35.992,2.275c.488.083.975.162,1.462.241,1.782.188,3.559.46,5.335.707q2.476.284,4.963.492c.225.016.45.037.681.058,4.04.226,8.128.183,12.163.183a130.788,130.788,0,0,0,52.473-10.46c4.051-1.776,8.307-2.84,12.452-4.349a129.346,129.346,0,0,1,12.682-3.988c8.993-2.259,17.807-4.785,27.03-6.032a113.722,113.722,0,0,1,26.517-.917,131.892,131.892,0,0,1,13.3,2.463c3.925.812,7.593,2.458,11.45,3.469C808.254,597.319,808.951,596.37,808.626,596.223Z"/><path class="ag" d="M283.723,605.745c0,1.054-1.933,1.907-4.317,1.907s-4.321-.853-4.321-1.907,1.933-1.908,4.321-1.908S283.723,604.692,283.723,605.745Z"/><path class="ag" d="M311.433,597.213c0,2.448-4.5,4.434-10.041,4.434s-10.041-1.986-10.041-4.434,4.494-4.433,10.041-4.433S311.433,594.766,311.433,597.213Z"/><path class="ag" d="M460.289,548.456c0,.749-1.378,1.357-3.076,1.357s-3.081-.608-3.081-1.357,1.378-1.357,3.081-1.357S460.289,547.706,460.289,548.456Z"/><path class="ag" d="M480.025,542.382c0,1.74-3.2,3.155-7.153,3.155s-7.153-1.415-7.153-3.155,3.2-3.16,7.153-3.16S480.025,540.637,480.025,542.382Z"/><path class="ag" d="M141.533,559c0,.576-1.061,1.042-2.371,1.042s-2.372-.466-2.372-1.042,1.061-1.049,2.372-1.049S141.533,558.413,141.533,559Z"/><path class="ag" d="M156.749,554.309c0,1.342-2.468,2.432-5.516,2.432s-5.513-1.09-5.513-2.432,2.468-2.436,5.513-2.436S156.749,552.962,156.749,554.309Z"/><path class="ag" d="M7.766,478.516c0,.576-1.061,1.045-2.371,1.045s-2.372-.469-2.372-1.045,1.062-1.048,2.372-1.048S7.766,477.937,7.766,478.516Z"/><path class="ag" d="M22.982,473.831c0,1.344-2.468,2.434-5.513,2.434s-5.516-1.09-5.516-2.434,2.469-2.434,5.516-2.434S22.982,472.487,22.982,473.831Z"/><path class="ag" d="M391.282,513.711c0,.692-1.268,1.247-2.829,1.247s-2.833-.555-2.833-1.247,1.268-1.247,2.833-1.247S391.282,513.02,391.282,513.711Z"/><path class="ag" d="M409.438,508.12c0,1.6-2.945,2.9-6.58,2.9s-6.579-1.3-6.579-2.9,2.945-2.9,6.579-2.9S409.438,506.516,409.438,508.12Z"/><path class="ag" d="M665.366,521.855c0,.692-1.268,1.253-2.83,1.253s-2.835-.561-2.835-1.253,1.269-1.247,2.835-1.247S665.366,521.163,665.366,521.855Z"/><path class="ag" d="M683.519,516.268c0,1.6-2.945,2.9-6.577,2.9s-6.581-1.3-6.581-2.9,2.945-2.908,6.581-2.908S683.519,514.66,683.519,516.268Z"/><path class="ag" d="M690.39,574.145c0,.592-1.1,1.079-2.443,1.079s-2.436-.487-2.436-1.079,1.09-1.08,2.436-1.08S690.39,573.548,690.39,574.145Z"/><path class="ag" d="M706.032,569.329c0,1.378-2.536,2.5-5.67,2.5s-5.67-1.122-5.67-2.5,2.542-2.5,5.67-2.5S706.032,567.945,706.032,569.329Z"/><path class="ag" d="M801.2,517.343c0,.592-1.09,1.074-2.437,1.074s-2.442-.482-2.442-1.074,1.09-1.079,2.442-1.079S801.2,516.745,801.2,517.343Z"/><path class="ag" d="M816.843,512.527c0,1.378-2.542,2.5-5.67,2.5s-5.67-1.122-5.67-2.5,2.536-2.505,5.67-2.505S816.843,511.144,816.843,512.527Z"/><rect class="ah" width="1250.343" height="767.378"/><path class="ai" d="M1260.41,671.26V784.64H-8.85V708.09A277.458,277.458,0,0,1,67.02,695.9c31.74-.7,63.21,3.18,93.95,8.34C194.8,709.91,228.1,717,262.13,722.1c37.88,5.68,76.26,10.38,115.05,11.54,18.55.56,37.43.67,55.84-1.21a287.612,287.612,0,0,0,46.28-8.63c30.63-8.34,58.61-20.55,87.12-31.78a.588.588,0,0,1,.51.04q8.625-3.615,17.27-7.21c34.35-16.31,69.91-32.33,110.03-40.77a296.645,296.645,0,0,1,69.5-6.26c25.64.76,50.79,4.42,75.36,9.39,24.8,5.02,49.08,11.17,73.79,16.41,25.06,5.31,51.74,10.66,78.14,10.73,27.02.07,52.5-5.82,76.34-14.25,23.12-8.17,48.7-13.55,74.8-13.81,26.76-.26,52.12,4.57,76.39,12.08C1232.59,662.71,1246.3,667.31,1260.41,671.26Z"/></g></svg>