<svg xmlns="http://www.w3.org/2000/svg" xmlns:xlink="http://www.w3.org/1999/xlink" viewBox="0 0 100 100"><defs><style>.a{fill:#fff;}.b{fill:url(#a);}.c{fill:url(#b);}.d{fill:url(#c);}.e{fill:url(#d);}.f{fill:url(#e);}.g{fill:url(#f);}.h{fill:url(#g);}</style><linearGradient id="a" x1="55.287" y1="59.013" x2="75.613" y2="38.688" gradientUnits="userSpaceOnUse"><stop offset="0" stop-color="#d0e8f8"/><stop offset="1" stop-color="#e1eef9"/></linearGradient><linearGradient id="b" x1="24.185" y1="68.302" x2="31.073" y2="68.302" gradientUnits="userSpaceOnUse"><stop offset="0" stop-color="#00aeef"/><stop offset="1" stop-color="#00bdf2"/></linearGradient><linearGradient id="c" x1="40.297" y1="68.302" x2="47.184" y2="68.302" xlink:href="#b"/><linearGradient id="d" x1="56.409" y1="68.302" x2="63.296" y2="68.302" xlink:href="#b"/><linearGradient id="e" x1="29.185" y1="75.482" x2="36.073" y2="75.482" xlink:href="#b"/><linearGradient id="f" x1="45.797" y1="75.482" x2="52.685" y2="75.482" xlink:href="#b"/><linearGradient id="g" x1="62.409" y1="75.482" x2="69.296" y2="75.482" xlink:href="#b"/></defs><path class="a" d="M62.544,56.456a10.664,10.664,0,1,0,0-21.328c-.036,0-.072.005-.109.006a17.022,17.022,0,0,0-32.443-5.069c-.084,0-.167-.006-.252-.006a13.2,13.2,0,0,0,0,26.4"/><path class="b" d="M76.762,56.456a6.7,6.7,0,0,0,0-13.393c-.023,0-.045,0-.068,0a10.689,10.689,0,0,0-20.373-3.183c-.053,0-.1,0-.158,0a8.288,8.288,0,1,0,0,16.576"/><path class="c" d="M26.183,72.8a2,2,0,0,1-1.73-3l2.887-5a2,2,0,0,1,3.465,2l-2.887,5A2,2,0,0,1,26.183,72.8Z"/><path class="d" d="M42.3,72.8a2,2,0,0,1-1.73-3l2.887-5a2,2,0,1,1,3.464,2l-2.886,5A2,2,0,0,1,42.3,72.8Z"/><path class="e" d="M58.407,72.8a2,2,0,0,1-1.73-3l2.886-5a2,2,0,0,1,3.465,2l-2.887,5A2,2,0,0,1,58.407,72.8Z"/><path class="f" d="M31.183,79.983a2,2,0,0,1-1.73-3l2.887-5a2,2,0,0,1,3.465,2l-2.887,5A2,2,0,0,1,31.183,79.983Z"/><path class="g" d="M47.8,79.983a2,2,0,0,1-1.731-3l2.887-5a2,2,0,0,1,3.465,2l-2.887,5A2,2,0,0,1,47.8,79.983Z"/><path class="h" d="M64.407,79.983a2,2,0,0,1-1.73-3l2.886-5a2,2,0,0,1,3.465,2l-2.887,5A2,2,0,0,1,64.407,79.983Z"/></svg>