<svg xmlns="http://www.w3.org/2000/svg" xmlns:xlink="http://www.w3.org/1999/xlink" viewBox="0 0 100 100"><defs><style>.a{fill:#fff;}.b{fill:url(#a);}</style><linearGradient id="a" x1="55.287" y1="59.013" x2="75.613" y2="38.688" gradientUnits="userSpaceOnUse"><stop offset="0" stop-color="#d0e8f8"/><stop offset="1" stop-color="#e1eef9"/></linearGradient></defs><path class="a" d="M62.544,56.456a10.664,10.664,0,1,0,0-21.328c-.036,0-.072.005-.109.006a17.022,17.022,0,0,0-32.443-5.069c-.084,0-.167-.006-.252-.006a13.2,13.2,0,0,0,0,26.4"/><path class="b" d="M76.762,56.456a6.7,6.7,0,0,0,0-13.393c-.023,0-.045,0-.068,0a10.689,10.689,0,0,0-20.373-3.183c-.053,0-.1,0-.158,0a8.288,8.288,0,1,0,0,16.576"/></svg>